<?xml version="1.0" encoding="UTF-8"?>
<!-- Generator: Adobe Illustrator 19.0.0, SVG Export Plug-In . SVG Version: 6.00 Build 0)  -->
<svg version="1.1" id="_x2014_ÎÓÈ_1" xmlns="http://www.w3.org/2000/svg" xmlns:xlink="http://www.w3.org/1999/xlink" x="0px" y="0px" viewBox="0 0 986.6 823.8" style="enable-background:new 0 0 986.6 823.8;" xml:space="preserve">
<style type="text/css">
	.st0{fill-rule:evenodd;clip-rule:evenodd;fill:#FF0000;}
	.st1{fill-rule:evenodd;clip-rule:evenodd;fill:#990000;}
	.st2{fill-rule:evenodd;clip-rule:evenodd;fill:#B3B3B3;}
	.st3{fill-rule:evenodd;clip-rule:evenodd;fill:#E5E5E5;}
</style>
<rect x="338.8" y="226.5" class="st0" width="64.7" height="64.7"/>
<rect x="628.2" y="750.1" class="st0" width="65.6" height="25.5"/>
<path class="st0" d="M134.2,785.5c0,21.3-17.2,38.6-38.5,38.5l-93.8-0.3v-25.5l92.6,0.2c6.4,0,13.3-5.4,13.1-13.1  c-0.2-8.2-7.1-13.1-12.8-13.1l-62.3,0.2C18.6,772.5,0,760.1,0,737.8c0-21.9,18.4-34.1,34.3-34.1l93-0.2V729l-93.5-0.1  c-4.9,0-8.5,4.5-8.4,9.3c0.1,4.8,3.6,8.6,9.1,8.6l61.9,0.2C113.8,747,134.2,761.3,134.2,785.5z"/>
<path class="st0" d="M842.3,823.6h-67.6c-36.1,0-60.2-27.4-60.5-61.4c-0.3-34,30.8-58.8,60.5-58.8h67.6v25.5h-67.6  c-18.4,0-34.7,15-34.6,34.4c0.2,19.4,16.5,34.9,34.6,34.9h67.6V823.6z"/>
<polygon class="st0" points="628.9,729.1 628.9,798.3 708,798.3 708,823.8 603.4,823.8 603.4,703.6 708,703.6 708,729.1 "/>
<polygon class="st0" points="547.6,729.1 547.6,823.8 522.3,823.8 522.3,729.1 477,729.1 477,703.6 592.8,703.6 592.8,729.1 "/>
<rect x="441" y="703.6" class="st0" width="25.5" height="120.2"/>
<path class="st0" d="M365.2,791.3h-44.8V766l63.4,0.3c11.3,0,18.4-9.9,18.7-18.7c0.3-8.8-6.9-18.7-18.7-18.7l-69.7-0.1v94.7h-25.5  V703.3l93.7-0.1c28.4,0,45.5,23.3,45.1,44.4c-0.3,21.1-13.1,34.9-28.4,40.7l35.6,35.2h-37.4L365.2,791.3z"/>
<path class="st0" d="M169.7,729.1v94.7h-25.5V703.6l90.8,0c23.5,0,42.9,19.9,42.9,44.1c0.2,24.3-19.6,44.1-43.2,44.1l-58.7-0.2  v-25.3l57.8,0.1c10.7,0,18.7-8.6,18.7-19.4c0-9.2-8-17.9-18.7-17.9L169.7,729.1z"/>
<path class="st0" d="M986.6,785.4c0,21.3-17.2,38.6-38.5,38.5l-93.8-0.3v-25.5l92.6,0.2c6.4,0,13.3-5.4,13.1-13.1  c-0.2-8.2-7.1-13.1-12.8-13.1l-62.3,0.2c-13.9,0-32.5-12.3-32.5-34.6c0-21.9,18.4-34.1,34.3-34.1l93-0.2v25.5l-93.5-0.1  c-4.9,0-8.5,4.5-8.4,9.3c0.1,4.8,3.6,8.6,9.1,8.6l61.9,0.2C966.1,746.9,986.6,761.2,986.6,785.4z"/>
<polygon class="st0" points="403.5,356 338.8,291.3 343.7,289.1 398.3,288.8 403.5,291.3 403.5,291.3 409.5,293.4 467,351.9   468.2,356 403.5,356 "/>
<polygon class="st0" points="590.4,356.1 532.4,291.3 597.1,291.3 597.1,291.3 661.8,356 "/>
<polygon class="st1" points="403.5,253.9 338.5,226.7 403.5,226.5 "/>
<polygon class="st0" points="403.5,420.7 408.6,422.5 468,482.6 468.2,485.4 465.7,486.7 409.3,487.5 403.5,485.4 400.3,481.4   400.5,426.4 "/>
<polygon class="st0" points="532.9,420.7 597.7,420.7 599.6,422.6 600.1,479.5 597.7,485.4 532.9,485.4 530,478.3 530,424.2 "/>
<polygon class="st2" points="597.7,291.3 532.9,226.5 537.7,222.5 587.1,222.2 597.3,226.3 597.7,226.5 662.4,291.3 597.7,291.3 "/>
<polygon class="st2" points="597.7,485.4 662.4,550.2 597.7,550.2 "/>
<polygon class="st2" points="468.2,550.2 403.5,485.4 468.2,485.4 "/>
<polygon class="st2" points="694.8,258.9 630,194.2 694.8,194.2 "/>
<polygon class="st2" points="403.5,161.8 338.8,97.1 403.5,97.1 "/>
<polygon class="st2" points="274.1,291.3 338.8,226.5 274.1,226.5 "/>
<polygon class="st2" points="306.4,388.3 371.1,453.1 306.4,453.1 "/>
<polygon class="st2" points="727.1,356 662.4,420.7 727.1,420.7 "/>
<polygon class="st3" points="274.1,356 209.3,291.3 274.1,291.3 274.1,291.3 338.8,356 274.1,356 "/>
<polygon class="st3" points="727.1,356 662.4,291.3 727.1,291.3 727.1,291.3 791.8,356 727.1,356 "/>
<polygon class="st3" points="500.6,0 565.3,64.7 500.6,64.7 "/>
<polygon class="st3" points="759,194.2 823.7,258.9 759,258.9 "/>
<polygon class="st3" points="497.6,647.2 432.9,582.5 497.6,582.5 "/>
<polygon class="st3" points="241.5,453.1 176.8,388.3 241.5,388.3 "/>
<polygon class="st0" points="468.2,485.4 403.5,420.7 468.2,420.7 468.2,420.7 479.1,425.2 528.8,474.4 532.9,485.4 468.2,485.4 "/>
<polygon class="st0" points="403.5,420.7 338.8,485.4 403.5,485.4 403.5,426.1 "/>
<polygon class="st0" points="403.5,161.8 338.8,226.5 403.5,226.5 "/>
<polygon class="st0" points="596.7,226.9 661.4,162.2 596.7,162.2 "/>
<polygon class="st0" points="597.7,485.4 662.4,420.7 597.7,420.7 "/>
<polygon class="st0" points="371.1,582.5 306.3,517.8 371.1,517.8 "/>
<polygon class="st0" points="532.9,485.4 468.2,420.7 532.9,420.7 "/>
<polygon class="st0" points="306.3,258.8 241.5,194.1 306.3,194.1 "/>
<polygon class="st0" points="630,64.7 694.8,129.4 630,129.4 "/>
<polygon class="st0" points="694.8,388.3 759.5,453.1 694.8,453.1 "/>
<polygon class="st0" points="662.4,291.3 727.1,226.5 662.4,226.5 "/>
<polygon class="st0" points="565.3,582.5 630,517.8 565.3,517.8 "/>
<polygon class="st0" points="694.8,582.5 759.5,517.8 694.8,517.8 "/>
<polygon class="st0" points="435.9,64.7 371.1,129.4 435.9,129.4 "/>
<polygon class="st0" points="338.8,356 274.1,420.7 338.8,420.7 "/>
<rect x="603.9" y="356" class="st0" width="58.5" height="64.7"/>
<rect x="403.1" y="162.2" class="st0" width="194" height="64"/>
<rect x="403.1" y="291.3" class="st0" width="194" height="64.7"/>
<polygon class="st1" points="662.4,383.3 604.4,356.1 662.4,356 "/>
</svg>