<svg width="124" height="123" viewBox="0 0 124 123" fill="none" xmlns="http://www.w3.org/2000/svg">
<path fill-rule="evenodd" clip-rule="evenodd" d="M11.6399 61.3392C11.6399 33.9069 34.1088 11.5772 61.9389 11.5772C65.0081 11.5772 67.4961 9.0892 67.4961 6.02006C67.4961 2.95092 65.0081 0.462891 61.9389 0.462891C28.072 0.462891 0.525574 27.6676 0.525574 61.3392C0.525574 95.0107 28.072 122.215 61.9389 122.215C95.0569 122.215 122.127 96.2047 123.312 63.5647C123.471 59.1829 119.917 55.782 115.774 55.782H109.202L90.5905 55.782H61.6704C58.6012 55.782 56.1132 58.27 56.1132 61.3392C56.1132 64.4083 58.6012 66.8963 61.6704 66.8963H61.9257L61.9389 66.8964H71.6063L78.5616 66.8963C76.2086 73.8307 69.5719 78.8764 61.6704 78.8764C51.7758 78.8764 43.8646 70.9643 43.8646 61.3392C43.8646 51.714 51.7758 43.802 61.6704 43.802C64.7395 43.802 67.2275 41.3139 67.2275 38.2448C67.2275 35.1756 64.7395 32.6876 61.6704 32.6876C45.759 32.6876 32.7503 45.455 32.7503 61.3392C32.7503 77.2234 45.759 89.9907 61.6704 89.9907C75.6759 89.9907 87.4324 80.0988 90.0479 66.8964H109.202H111.928C109.139 91.7216 87.8631 111.101 61.9389 111.101C34.1088 111.101 11.6399 88.7714 11.6399 61.3392ZM92.7388 6.02006C92.7388 2.95092 90.2508 0.462891 87.1817 0.462891C84.1125 0.462891 81.6245 2.95092 81.6245 6.02006V39.5053H117.795C120.864 39.5053 123.352 37.0173 123.352 33.9482C123.352 30.879 120.864 28.391 117.795 28.391H92.7388V6.02006Z" fill="#6160DC"/>
</svg>
