<svg viewBox="0 0 20 20" fill="none" xmlns="http://www.w3.org/2000/svg">
<path fill-rule="evenodd" clip-rule="evenodd" d="M15 1.2H4C3.00589 1.2 2.2 2.00589 2.2 3V14C2.2 14.9941 3.00589 15.8 4 15.8H15C15.9941 15.8 16.8 14.9941 16.8 14V3C16.8 2.00589 15.9941 1.2 15 1.2ZM4 0C2.34315 0 1 1.34315 1 3V14C1 15.6569 2.34315 17 4 17H15C16.6569 17 18 15.6569 18 14V3C18 1.34315 16.6569 0 15 0H4Z" fill="white"/>
<path fill-rule="evenodd" clip-rule="evenodd" d="M13 4.2H6C5.55817 4.2 5.2 4.55817 5.2 5V12C5.2 12.4418 5.55817 12.8 6 12.8H13C13.4418 12.8 13.8 12.4418 13.8 12V5C13.8 4.55817 13.4418 4.2 13 4.2ZM6 3C4.89543 3 4 3.89543 4 5V12C4 13.1046 4.89543 14 6 14H13C14.1046 14 15 13.1046 15 12V5C15 3.89543 14.1046 3 13 3H6Z" fill="white"/>
</svg>
