<svg  viewBox="0 0 22 22" fill="none" xmlns="http://www.w3.org/2000/svg">
<path fill-rule="evenodd" clip-rule="evenodd" d="M4 1C2.34315 1 1 2.34315 1 4V18C1 19.6569 2.34315 21 4 21H18C19.6569 21 21 19.6569 21 18V4C21 2.34315 19.6569 1 18 1H4ZM4.53967 8.78684L8.75731 12.9344L17.4603 5L19 6.53279L8.75731 16L2.99992 10.3196L4.53967 8.78684Z" fill="#6160DC"/>
<path d="M8.75731 12.9344L8.58202 13.1127L8.7508 13.2787L8.92574 13.1192L8.75731 12.9344ZM4.53967 8.78684L4.71496 8.60859L4.5386 8.43516L4.36329 8.60966L4.53967 8.78684ZM17.4603 5L17.6366 4.82282L17.4678 4.65479L17.2918 4.81525L17.4603 5ZM19 6.53279L19.1697 6.71638L19.3611 6.53948L19.1764 6.35561L19 6.53279ZM8.75731 16L8.58172 16.178L8.75167 16.3456L8.927 16.1836L8.75731 16ZM2.99992 10.3196L2.82354 10.1425L2.64476 10.3204L2.82434 10.4976L2.99992 10.3196ZM1.25 4C1.25 2.48122 2.48122 1.25 4 1.25V0.75C2.20507 0.75 0.75 2.20507 0.75 4H1.25ZM1.25 18V4H0.75V18H1.25ZM4 20.75C2.48122 20.75 1.25 19.5188 1.25 18H0.75C0.75 19.7949 2.20507 21.25 4 21.25V20.75ZM18 20.75H4V21.25H18V20.75ZM20.75 18C20.75 19.5188 19.5188 20.75 18 20.75V21.25C19.7949 21.25 21.25 19.7949 21.25 18H20.75ZM20.75 4V18H21.25V4H20.75ZM18 1.25C19.5188 1.25 20.75 2.48122 20.75 4H21.25C21.25 2.20507 19.7949 0.75 18 0.75V1.25ZM4 1.25H18V0.75H4V1.25ZM8.9326 12.7562L4.71496 8.60859L4.36438 8.96509L8.58202 13.1127L8.9326 12.7562ZM17.2918 4.81525L8.58887 12.7497L8.92574 13.1192L17.6287 5.18475L17.2918 4.81525ZM19.1764 6.35561L17.6366 4.82282L17.2839 5.17718L18.8236 6.70996L19.1764 6.35561ZM8.927 16.1836L19.1697 6.71638L18.8303 6.3492L8.58762 15.8164L8.927 16.1836ZM2.82434 10.4976L8.58172 16.178L8.93289 15.822L3.1755 10.1417L2.82434 10.4976ZM4.36329 8.60966L2.82354 10.1425L3.17629 10.4968L4.71605 8.96402L4.36329 8.60966Z" fill="#6160DC"/>
</svg>
