<svg width="19" height="17" viewBox="0 0 19 17" fill="none" xmlns="http://www.w3.org/2000/svg">
    <mask id="path-1-inside-1_252_589" fill="white">
        <path fill-rule="evenodd" clip-rule="evenodd"
            d="M1.56942 1.99717H7.40275C7.52356 1.99717 7.6215 2.0979 7.6215 2.22217V6.72217C7.6215 6.84643 7.52356 6.94717 7.40275 6.94717H1.56942C1.44861 6.94717 1.35067 6.84643 1.35067 6.72217V2.22217C1.35067 2.0979 1.4486 1.99717 1.56942 1.99717ZM0.111084 2.22217C0.111084 1.39374 0.764002 0.722168 1.56942 0.722168H7.40275C8.20817 0.722168 8.86108 1.39374 8.86108 2.22217V6.72217C8.86108 7.5506 8.20817 8.22217 7.40275 8.22217H1.56942C0.764002 8.22217 0.111084 7.5506 0.111084 6.72217V2.22217ZM1.56942 10.7472H7.40275C7.52356 10.7472 7.6215 10.8479 7.6215 10.9722V15.4722C7.6215 15.5964 7.52356 15.6972 7.40275 15.6972H1.56942C1.44861 15.6972 1.35067 15.5964 1.35067 15.4722V10.9722C1.35067 10.8479 1.4486 10.7472 1.56942 10.7472ZM0.111084 10.9722C0.111084 10.1437 0.764002 9.47217 1.56942 9.47217H7.40275C8.20817 9.47217 8.86108 10.1437 8.86108 10.9722V15.4722C8.86108 16.3006 8.20817 16.9722 7.40275 16.9722H1.56942C0.764002 16.9722 0.111084 16.3006 0.111084 15.4722V10.9722ZM17.4028 1.99717H11.5694C11.4486 1.99717 11.3507 2.0979 11.3507 2.22217V6.72217C11.3507 6.84643 11.4486 6.94717 11.5694 6.94717H17.4028C17.5236 6.94717 17.6215 6.84643 17.6215 6.72217V2.22217C17.6215 2.0979 17.5236 1.99717 17.4028 1.99717ZM11.5694 0.722168C10.764 0.722168 10.1111 1.39374 10.1111 2.22217V6.72217C10.1111 7.5506 10.764 8.22217 11.5694 8.22217H17.4028C18.2082 8.22217 18.8611 7.5506 18.8611 6.72217V2.22217C18.8611 1.39374 18.2082 0.722168 17.4028 0.722168H11.5694ZM11.5694 10.7472H17.4028C17.5236 10.7472 17.6215 10.8479 17.6215 10.9722V15.4722C17.6215 15.5964 17.5236 15.6972 17.4028 15.6972H11.5694C11.4486 15.6972 11.3507 15.5964 11.3507 15.4722V10.9722C11.3507 10.8479 11.4486 10.7472 11.5694 10.7472ZM10.1111 10.9722C10.1111 10.1437 10.764 9.47217 11.5694 9.47217H17.4028C18.2082 9.47217 18.8611 10.1437 18.8611 10.9722V15.4722C18.8611 16.3006 18.2082 16.9722 17.4028 16.9722H11.5694C10.764 16.9722 10.1111 16.3006 10.1111 15.4722V10.9722Z" />
    </mask>
    <path fill-rule="evenodd" clip-rule="evenodd"
        d="M1.56942 1.99717H7.40275C7.52356 1.99717 7.6215 2.0979 7.6215 2.22217V6.72217C7.6215 6.84643 7.52356 6.94717 7.40275 6.94717H1.56942C1.44861 6.94717 1.35067 6.84643 1.35067 6.72217V2.22217C1.35067 2.0979 1.4486 1.99717 1.56942 1.99717ZM0.111084 2.22217C0.111084 1.39374 0.764002 0.722168 1.56942 0.722168H7.40275C8.20817 0.722168 8.86108 1.39374 8.86108 2.22217V6.72217C8.86108 7.5506 8.20817 8.22217 7.40275 8.22217H1.56942C0.764002 8.22217 0.111084 7.5506 0.111084 6.72217V2.22217ZM1.56942 10.7472H7.40275C7.52356 10.7472 7.6215 10.8479 7.6215 10.9722V15.4722C7.6215 15.5964 7.52356 15.6972 7.40275 15.6972H1.56942C1.44861 15.6972 1.35067 15.5964 1.35067 15.4722V10.9722C1.35067 10.8479 1.4486 10.7472 1.56942 10.7472ZM0.111084 10.9722C0.111084 10.1437 0.764002 9.47217 1.56942 9.47217H7.40275C8.20817 9.47217 8.86108 10.1437 8.86108 10.9722V15.4722C8.86108 16.3006 8.20817 16.9722 7.40275 16.9722H1.56942C0.764002 16.9722 0.111084 16.3006 0.111084 15.4722V10.9722ZM17.4028 1.99717H11.5694C11.4486 1.99717 11.3507 2.0979 11.3507 2.22217V6.72217C11.3507 6.84643 11.4486 6.94717 11.5694 6.94717H17.4028C17.5236 6.94717 17.6215 6.84643 17.6215 6.72217V2.22217C17.6215 2.0979 17.5236 1.99717 17.4028 1.99717ZM11.5694 0.722168C10.764 0.722168 10.1111 1.39374 10.1111 2.22217V6.72217C10.1111 7.5506 10.764 8.22217 11.5694 8.22217H17.4028C18.2082 8.22217 18.8611 7.5506 18.8611 6.72217V2.22217C18.8611 1.39374 18.2082 0.722168 17.4028 0.722168H11.5694ZM11.5694 10.7472H17.4028C17.5236 10.7472 17.6215 10.8479 17.6215 10.9722V15.4722C17.6215 15.5964 17.5236 15.6972 17.4028 15.6972H11.5694C11.4486 15.6972 11.3507 15.5964 11.3507 15.4722V10.9722C11.3507 10.8479 11.4486 10.7472 11.5694 10.7472ZM10.1111 10.9722C10.1111 10.1437 10.764 9.47217 11.5694 9.47217H17.4028C18.2082 9.47217 18.8611 10.1437 18.8611 10.9722V15.4722C18.8611 16.3006 18.2082 16.9722 17.4028 16.9722H11.5694C10.764 16.9722 10.1111 16.3006 10.1111 15.4722V10.9722Z"
        fill="white" />
    <path
        d="M7.40275 -0.00283194H1.56942V3.99717H7.40275V-0.00283194ZM9.6215 2.22217C9.6215 1.04682 8.68087 -0.00283194 7.40275 -0.00283194V3.99717C6.36626 3.99717 5.6215 3.14899 5.6215 2.22217H9.6215ZM9.6215 6.72217V2.22217H5.6215V6.72217H9.6215ZM7.40275 8.94717C8.68087 8.94717 9.6215 7.89751 9.6215 6.72217H5.6215C5.6215 5.79535 6.36625 4.94717 7.40275 4.94717V8.94717ZM1.56942 8.94717H7.40275V4.94717H1.56942V8.94717ZM-0.649333 6.72217C-0.649333 7.89751 0.291293 8.94717 1.56942 8.94717V4.94717C2.60592 4.94717 3.35067 5.79535 3.35067 6.72217H-0.649333ZM-0.649333 2.22217V6.72217H3.35067V2.22217H-0.649333ZM1.56942 -0.00283194C0.291299 -0.00283194 -0.649333 1.04682 -0.649333 2.22217H3.35067C3.35067 3.14899 2.60591 3.99717 1.56942 3.99717V-0.00283194ZM1.56942 -1.27783C-0.393304 -1.27783 -1.88892 0.342656 -1.88892 2.22217H2.11108C2.11108 2.44483 1.92131 2.72217 1.56942 2.72217V-1.27783ZM7.40275 -1.27783H1.56942V2.72217H7.40275V-1.27783ZM10.8611 2.22217C10.8611 0.342657 9.36547 -1.27783 7.40275 -1.27783V2.72217C7.05086 2.72217 6.86108 2.44483 6.86108 2.22217H10.8611ZM10.8611 6.72217V2.22217H6.86108V6.72217H10.8611ZM7.40275 10.2222C9.36547 10.2222 10.8611 8.60168 10.8611 6.72217H6.86108C6.86108 6.49951 7.05086 6.22217 7.40275 6.22217V10.2222ZM1.56942 10.2222H7.40275V6.22217H1.56942V10.2222ZM-1.88892 6.72217C-1.88892 8.60168 -0.393303 10.2222 1.56942 10.2222V6.22217C1.92131 6.22217 2.11108 6.49951 2.11108 6.72217H-1.88892ZM-1.88892 2.22217V6.72217H2.11108V2.22217H-1.88892ZM7.40275 8.74717H1.56942V12.7472H7.40275V8.74717ZM9.6215 10.9722C9.6215 9.79683 8.68088 8.74717 7.40275 8.74717V12.7472C6.36625 12.7472 5.6215 11.899 5.6215 10.9722H9.6215ZM9.6215 15.4722V10.9722H5.6215V15.4722H9.6215ZM7.40275 17.6972C8.68088 17.6972 9.6215 16.6475 9.6215 15.4722H5.6215C5.6215 14.5454 6.36625 13.6972 7.40275 13.6972V17.6972ZM1.56942 17.6972H7.40275V13.6972H1.56942V17.6972ZM-0.649333 15.4722C-0.649333 16.6475 0.291293 17.6972 1.56942 17.6972V13.6972C2.60592 13.6972 3.35067 14.5454 3.35067 15.4722H-0.649333ZM-0.649333 10.9722V15.4722H3.35067V10.9722H-0.649333ZM1.56942 8.74717C0.291292 8.74717 -0.649333 9.79683 -0.649333 10.9722H3.35067C3.35067 11.899 2.60592 12.7472 1.56942 12.7472V8.74717ZM1.56942 7.47217C-0.393304 7.47217 -1.88892 9.09266 -1.88892 10.9722H2.11108C2.11108 11.1948 1.92131 11.4722 1.56942 11.4722V7.47217ZM7.40275 7.47217H1.56942V11.4722H7.40275V7.47217ZM10.8611 10.9722C10.8611 9.09266 9.36547 7.47217 7.40275 7.47217V11.4722C7.05086 11.4722 6.86108 11.1948 6.86108 10.9722H10.8611ZM10.8611 15.4722V10.9722H6.86108V15.4722H10.8611ZM7.40275 18.9722C9.36547 18.9722 10.8611 17.3517 10.8611 15.4722H6.86108C6.86108 15.2495 7.05086 14.9722 7.40275 14.9722V18.9722ZM1.56942 18.9722H7.40275V14.9722H1.56942V18.9722ZM-1.88892 15.4722C-1.88892 17.3517 -0.393303 18.9722 1.56942 18.9722V14.9722C1.92131 14.9722 2.11108 15.2495 2.11108 15.4722H-1.88892ZM-1.88892 10.9722V15.4722H2.11108V10.9722H-1.88892ZM11.5694 3.99717H17.4028V-0.00283194H11.5694V3.99717ZM13.3507 2.22217C13.3507 3.14899 12.6059 3.99717 11.5694 3.99717V-0.00283194C10.2913 -0.00283194 9.35067 1.04682 9.35067 2.22217H13.3507ZM13.3507 6.72217V2.22217H9.35067V6.72217H13.3507ZM11.5694 4.94717C12.6059 4.94717 13.3507 5.79534 13.3507 6.72217H9.35067C9.35067 7.89752 10.2913 8.94717 11.5694 8.94717V4.94717ZM17.4028 4.94717H11.5694V8.94717H17.4028V4.94717ZM15.6215 6.72217C15.6215 5.79533 16.3663 4.94717 17.4028 4.94717V8.94717C18.6809 8.94717 19.6215 7.89753 19.6215 6.72217H15.6215ZM15.6215 2.22217V6.72217H19.6215V2.22217H15.6215ZM17.4028 3.99717C16.3663 3.99717 15.6215 3.149 15.6215 2.22217H19.6215C19.6215 1.0468 18.6809 -0.00283194 17.4028 -0.00283194V3.99717ZM12.1111 2.22217C12.1111 2.44483 11.9213 2.72217 11.5694 2.72217V-1.27783C9.6067 -1.27783 8.11108 0.342656 8.11108 2.22217H12.1111ZM12.1111 6.72217V2.22217H8.11108V6.72217H12.1111ZM11.5694 6.22217C11.9213 6.22217 12.1111 6.49951 12.1111 6.72217H8.11108C8.11108 8.60168 9.6067 10.2222 11.5694 10.2222V6.22217ZM17.4028 6.22217H11.5694V10.2222H17.4028V6.22217ZM16.8611 6.72217C16.8611 6.49951 17.0509 6.22217 17.4028 6.22217V10.2222C19.3655 10.2222 20.8611 8.60168 20.8611 6.72217H16.8611ZM16.8611 2.22217V6.72217H20.8611V2.22217H16.8611ZM17.4028 2.72217C17.0509 2.72217 16.8611 2.44483 16.8611 2.22217H20.8611C20.8611 0.342656 19.3655 -1.27783 17.4028 -1.27783V2.72217ZM11.5694 2.72217H17.4028V-1.27783H11.5694V2.72217ZM17.4028 8.74717H11.5694V12.7472H17.4028V8.74717ZM19.6215 10.9722C19.6215 9.79681 18.6809 8.74717 17.4028 8.74717V12.7472C16.3663 12.7472 15.6215 11.899 15.6215 10.9722H19.6215ZM19.6215 15.4722V10.9722H15.6215V15.4722H19.6215ZM17.4028 17.6972C18.6809 17.6972 19.6215 16.6475 19.6215 15.4722H15.6215C15.6215 14.5453 16.3663 13.6972 17.4028 13.6972V17.6972ZM11.5694 17.6972H17.4028V13.6972H11.5694V17.6972ZM9.35067 15.4722C9.35067 16.6475 10.2913 17.6972 11.5694 17.6972V13.6972C12.6059 13.6972 13.3507 14.5453 13.3507 15.4722H9.35067ZM9.35067 10.9722V15.4722H13.3507V10.9722H9.35067ZM11.5694 8.74717C10.2913 8.74717 9.35067 9.79683 9.35067 10.9722H13.3507C13.3507 11.899 12.6059 12.7472 11.5694 12.7472V8.74717ZM11.5694 7.47217C9.6067 7.47217 8.11108 9.09266 8.11108 10.9722H12.1111C12.1111 11.1948 11.9213 11.4722 11.5694 11.4722V7.47217ZM17.4028 7.47217H11.5694V11.4722H17.4028V7.47217ZM20.8611 10.9722C20.8611 9.09266 19.3655 7.47217 17.4028 7.47217V11.4722C17.0509 11.4722 16.8611 11.1948 16.8611 10.9722H20.8611ZM20.8611 15.4722V10.9722H16.8611V15.4722H20.8611ZM17.4028 18.9722C19.3655 18.9722 20.8611 17.3517 20.8611 15.4722H16.8611C16.8611 15.2495 17.0509 14.9722 17.4028 14.9722V18.9722ZM11.5694 18.9722H17.4028V14.9722H11.5694V18.9722ZM8.11108 15.4722C8.11108 17.3517 9.6067 18.9722 11.5694 18.9722V14.9722C11.9213 14.9722 12.1111 15.2495 12.1111 15.4722H8.11108ZM8.11108 10.9722V15.4722H12.1111V10.9722H8.11108Z"
        fill="white" mask="url(#path-1-inside-1_252_589)" />
</svg>