<svg width="20" height="21" viewBox="0 0 20 21" fill="none" xmlns="http://www.w3.org/2000/svg">
    <g clip-path="url(#clip0_238_1309)">
        <path fill-rule="evenodd" clip-rule="evenodd"
            d="M3.82353 1.91176H14.1765C15.1121 1.91176 15.8706 2.85987 15.8706 4.02941V16.9706C15.8706 18.1401 15.1121 19.0882 14.1765 19.0882H3.82353C2.88789 19.0882 2.12941 18.1401 2.12941 16.9706V4.02941C2.12941 2.85987 2.88789 1.91176 3.82353 1.91176ZM1 4.02941C1 2.08017 2.26414 0.5 3.82353 0.5H14.1765C15.7359 0.5 17 2.08017 17 4.02941V16.9706C17 18.9198 15.7359 20.5 14.1765 20.5H3.82353C2.26414 20.5 1 18.9198 1 16.9706V4.02941ZM4.65 4.2C4.29101 4.2 4 4.49101 4 4.85C4 5.20899 4.29101 5.5 4.65 5.5H13.35C13.709 5.5 14 5.20899 14 4.85C14 4.49101 13.709 4.2 13.35 4.2H4.65ZM4 7.85C4 7.49101 4.29101 7.2 4.65 7.2H13.35C13.709 7.2 14 7.49101 14 7.85C14 8.20899 13.709 8.5 13.35 8.5H4.65C4.29101 8.5 4 8.20899 4 7.85ZM4.65 10.2C4.29101 10.2 4 10.491 4 10.85C4 11.209 4.29101 11.5 4.65 11.5H13.35C13.709 11.5 14 11.209 14 10.85C14 10.491 13.709 10.2 13.35 10.2H4.65Z"
            fill="white" />
    </g>
    <defs>
        <clipPath id="clip0_238_1309">
            <rect width="20" height="20" fill="white" transform="translate(0 0.5)" />
        </clipPath>
    </defs>
</svg>