<svg  viewBox="0 0 20 20" fill="none" xmlns="http://www.w3.org/2000/svg">
<path fill-rule="evenodd" clip-rule="evenodd" d="M18.8 10C18.8 14.8601 14.8601 18.8 10 18.8C5.13989 18.8 1.2 14.8601 1.2 10C1.2 5.13989 5.13989 1.2 10 1.2C14.8601 1.2 18.8 5.13989 18.8 10ZM20 10C20 15.5228 15.5228 20 10 20C4.47715 20 0 15.5228 0 10C0 4.47715 4.47715 0 10 0C15.5228 0 20 4.47715 20 10ZM13.2738 13.9999L10 10.7261L6.72621 13.9999L6.00009 13.2738L9.27388 10L6 6.72612L6.72612 6L10 9.27388L13.2739 6L14 6.72612L10.7261 10L13.9999 13.2738L13.2738 13.9999Z" fill="#F44545"/>
</svg>
