<svg width="52" height="52" viewBox="0 0 52 52" fill="none" class="Header__logo--3sNvY" xmlns="http://www.w3.org/2000/svg">
  <path
    fill-rule="evenodd"
    clip-rule="evenodd"
    d="M27.5301 4.23627L23.6502 0L19.766 4.24132L13.8984 1.4169L15.6566 9.73101L16.1903 9.50743C17.5567 8.9354 18.9857 8.52505 20.4374 8.28776C21.4485 8.12301 22.4798 8.03928 23.5026 8.03928C26.1337 8.03928 28.6915 8.57594 31.105 9.63465L31.6649 9.88024L33.1286 1.41492L27.5301 4.23627Z"
    fill="#FA835F"></path>
  <path
    fill-rule="evenodd"
    clip-rule="evenodd"
    d="M33.0231 41.4051V47.894H38.6341V27.1128C38.6341 24.4902 37.9599 21.9485 36.6309 19.5583C35.3125 17.188 33.4391 15.3182 31.0623 14.0002C28.6651 12.6704 26.1263 11.9961 23.5171 11.9961C20.908 11.9961 18.3696 12.6704 15.9723 14C13.5956 15.3182 11.722 17.1882 10.4034 19.5583C9.07438 21.9485 8.40039 24.4902 8.40039 27.1128C8.40039 29.7334 9.09152 32.2878 10.4545 34.7046C11.8064 37.1024 13.7029 38.9726 16.091 40.2629C18.5064 41.5679 21.0047 42.2296 23.5171 42.2296C25.4386 42.2296 27.3817 41.8469 29.2954 41.0919V34.6797C28.9374 34.9488 28.5617 35.1904 28.1739 35.4006C26.6826 36.2089 25.1161 36.6188 23.5171 36.6188C21.9326 36.6188 20.3731 36.2089 18.8821 35.4002C17.3654 34.5788 16.1591 33.3902 15.2963 31.8676C14.4435 30.3631 14.0113 28.7633 14.0113 27.1128C14.0113 25.4666 14.4309 23.8772 15.2584 22.389C16.0972 20.881 17.291 19.6911 18.8068 18.8525C20.301 18.0261 21.8859 17.607 23.5171 17.607C25.1481 17.607 26.733 18.0259 28.2275 18.8525C29.7432 19.6913 30.9373 20.8811 31.776 22.3888C32.6036 23.8774 33.0231 25.4668 33.0231 27.1128V39.6156V41.4051Z"
    fill="#FA835F"></path>
</svg>
