<svg  viewBox="0 0 20 20" fill="none" xmlns="http://www.w3.org/2000/svg">
<path d="M14.6841 13.4192L14.1667 8.31104C14.1667 5.9489 12.1833 4.07858 9.99995 3.46429C10.1294 3.22539 10.1981 2.95847 10.2 2.68716C10.2 1.75543 9.43882 1 8.5 1C7.56118 1 6.8 1.75543 6.8 2.68716C6.80194 2.95847 6.87056 3.22539 7.00005 3.46429C4.81667 4.07638 2.83333 5.94122 2.8361 8.25475L2.31592 13.4192C0.974512 13.6688 0.00193687 14.8301 0 16.1845C0 16.4951 0.253727 16.7469 0.566667 16.7469H5.95C6.03411 18.0641 7.17215 19.0678 8.5 18.9964C9.82785 19.0678 10.9659 18.0641 11.05 16.7469H16.4333C16.7463 16.7469 17 16.4951 17 16.1845C16.9981 14.8301 16.0255 13.6688 14.6841 13.4192V13.4192ZM7.93333 2.68716C7.93333 2.37659 8.18706 2.12478 8.5 2.12478C8.81294 2.12478 9.06667 2.37659 9.06667 2.68716C9.06667 2.99774 8.81294 3.24955 8.5 3.24955C8.18706 3.24955 7.93333 2.99774 7.93333 2.68716ZM8.5 17.8716C7.79914 17.9378 7.17187 17.44 7.08333 16.7469H9.91667C9.82812 17.44 9.20086 17.9378 8.5 17.8716ZM1.23018 15.6221C1.47118 14.9485 2.1131 14.4981 2.83333 14.4973C3.12552 14.4987 3.37067 14.2796 3.4 13.9912L3.96667 8.31104C3.96667 6.09417 6.40322 4.37433 8.5 4.37433C10.5968 4.37433 13.0333 6.09417 13.0361 8.36734L13.6028 13.9912C13.6318 14.2785 13.8756 14.4973 14.1667 14.4973C14.8869 14.4981 15.5288 14.9485 15.7698 15.6221H1.23018Z" fill="#909090"/>
<circle cx="14.5" cy="5.5" r="4.2" fill="#6160DC" stroke="white" stroke-width="0.6"/>
</svg>
