<svg  viewBox="0 0 20 20" fill="none" xmlns="http://www.w3.org/2000/svg">
<path fill-rule="evenodd" clip-rule="evenodd" d="M14.5473 13.662C16.8894 10.8717 16.7482 6.70447 14.1239 4.08013C11.3504 1.30662 6.85364 1.30662 4.08013 4.08013C1.30662 6.85364 1.30662 11.3504 4.08013 14.1239C6.70447 16.7482 10.8717 16.8894 13.662 14.5473C13.6681 14.554 13.6743 14.5606 13.6808 14.567L16.9302 17.8165C17.175 18.0612 17.5717 18.0612 17.8165 17.8165C18.0612 17.5717 18.0612 17.175 17.8165 16.9302L14.567 13.6808C14.5606 13.6743 14.554 13.6681 14.5473 13.662ZM13.2377 4.96635C15.5218 7.25041 15.5218 10.9536 13.2377 13.2377C10.9536 15.5218 7.25041 15.5218 4.96635 13.2377C2.68228 10.9536 2.68228 7.25041 4.96635 4.96635C7.25041 2.68228 10.9536 2.68228 13.2377 4.96635Z" fill="#7675ED" stroke="#7675ED" stroke-linecap="round"/>
</svg>
