<svg  viewBox="0 0 20 20" fill="none" xmlns="http://www.w3.org/2000/svg">
<path d="M8.06641 1.0625L7.95898 1.62109L7.55078 3.66211C6.89551 3.91992 6.30469 4.28247 5.76758 4.71484L3.76953 4.02734L3.23242 3.85547L2.95312 4.34961L1.57812 6.71289L1.29883 7.20703L1.70703 7.57227L3.25391 8.92578C3.19751 9.27759 3.125 9.62939 3.125 10C3.125 10.3706 3.19751 10.7224 3.25391 11.0742L1.70703 12.4277L1.29883 12.793L1.57812 13.2871L2.95312 15.6504L3.23242 16.1445L3.76953 15.9727L5.76758 15.2852C6.30469 15.7175 6.89551 16.0801 7.55078 16.3379L7.95898 18.3789L8.06641 18.9375H11.9336L12.041 18.3789L12.4492 16.3379C13.1045 16.0801 13.6953 15.7175 14.2324 15.2852L16.2305 15.9727L16.7676 16.1445L17.0469 15.6504L18.4219 13.2871L18.7012 12.793L18.293 12.4277L16.7461 11.0742C16.8025 10.7224 16.875 10.3706 16.875 10C16.875 9.62939 16.8025 9.27759 16.7461 8.92578L18.293 7.57227L18.7012 7.20703L18.4219 6.71289L17.0469 4.34961L16.7676 3.85547L16.2305 4.02734L14.2324 4.71484C13.6953 4.28247 13.1045 3.91992 12.4492 3.66211L12.041 1.62109L11.9336 1.0625H8.06641ZM9.18359 2.4375H10.8164L11.1602 4.2207L11.2461 4.62891L11.6328 4.75781C12.4143 5.0022 13.1233 5.41577 13.7168 5.96094L14.0176 6.24023L14.4043 6.11133L16.1445 5.50977L16.9609 6.90625L15.5859 8.13086L15.2637 8.38867L15.3711 8.79688C15.4597 9.18897 15.5 9.58911 15.5 10C15.5 10.4109 15.4597 10.811 15.3711 11.2031L15.2852 11.6113L15.5859 11.8691L16.9609 13.0938L16.1445 14.4902L14.4043 13.8887L14.0176 13.7598L13.7168 14.0391C13.1233 14.5842 12.4143 14.9978 11.6328 15.2422L11.2461 15.3711L11.1602 15.7793L10.8164 17.5625H9.18359L8.83984 15.7793L8.75391 15.3711L8.36719 15.2422C7.58569 14.9978 6.87671 14.5842 6.2832 14.0391L5.98242 13.7598L5.5957 13.8887L3.85547 14.4902L3.03906 13.0938L4.41406 11.8691L4.73633 11.6113L4.62891 11.2031C4.54028 10.811 4.5 10.4109 4.5 10C4.5 9.58911 4.54028 9.18897 4.62891 8.79688L4.73633 8.38867L4.41406 8.13086L3.03906 6.90625L3.85547 5.50977L5.5957 6.11133L5.98242 6.24023L6.2832 5.96094C6.87671 5.41577 7.58569 5.0022 8.36719 4.75781L8.75391 4.62891L8.83984 4.2207L9.18359 2.4375ZM10 6.5625C8.10938 6.5625 6.5625 8.10938 6.5625 10C6.5625 11.8906 8.10938 13.4375 10 13.4375C11.8906 13.4375 13.4375 11.8906 13.4375 10C13.4375 8.10938 11.8906 6.5625 10 6.5625ZM10 7.9375C11.1467 7.9375 12.0625 8.85327 12.0625 10C12.0625 11.1467 11.1467 12.0625 10 12.0625C8.85327 12.0625 7.9375 11.1467 7.9375 10C7.9375 8.85327 8.85327 7.9375 10 7.9375Z" fill="white"/>
</svg>
