<svg width="20" height="21" viewBox="0 0 20 21" fill="none" xmlns="http://www.w3.org/2000/svg">
    <path
        d="M8.06641 1.5625L7.95898 2.12109L7.55078 4.16211C6.89551 4.41992 6.30469 4.78247 5.76758 5.21484L3.76953 4.52734L3.23242 4.35547L2.95312 4.84961L1.57812 7.21289L1.29883 7.70703L1.70703 8.07227L3.25391 9.42578C3.19751 9.77759 3.125 10.1294 3.125 10.5C3.125 10.8706 3.19751 11.2224 3.25391 11.5742L1.70703 12.9277L1.29883 13.293L1.57812 13.7871L2.95312 16.1504L3.23242 16.6445L3.76953 16.4727L5.76758 15.7852C6.30469 16.2175 6.89551 16.5801 7.55078 16.8379L7.95898 18.8789L8.06641 19.4375H11.9336L12.041 18.8789L12.4492 16.8379C13.1045 16.5801 13.6953 16.2175 14.2324 15.7852L16.2305 16.4727L16.7676 16.6445L17.0469 16.1504L18.4219 13.7871L18.7012 13.293L18.293 12.9277L16.7461 11.5742C16.8025 11.2224 16.875 10.8706 16.875 10.5C16.875 10.1294 16.8025 9.77759 16.7461 9.42578L18.293 8.07227L18.7012 7.70703L18.4219 7.21289L17.0469 4.84961L16.7676 4.35547L16.2305 4.52734L14.2324 5.21484C13.6953 4.78247 13.1045 4.41992 12.4492 4.16211L12.041 2.12109L11.9336 1.5625H8.06641ZM9.18359 2.9375H10.8164L11.1602 4.7207L11.2461 5.12891L11.6328 5.25781C12.4143 5.5022 13.1233 5.91577 13.7168 6.46094L14.0176 6.74023L14.4043 6.61133L16.1445 6.00977L16.9609 7.40625L15.5859 8.63086L15.2637 8.88867L15.3711 9.29688C15.4597 9.68896 15.5 10.0891 15.5 10.5C15.5 10.9109 15.4597 11.311 15.3711 11.7031L15.2852 12.1113L15.5859 12.3691L16.9609 13.5938L16.1445 14.9902L14.4043 14.3887L14.0176 14.2598L13.7168 14.5391C13.1233 15.0842 12.4143 15.4978 11.6328 15.7422L11.2461 15.8711L11.1602 16.2793L10.8164 18.0625H9.18359L8.83984 16.2793L8.75391 15.8711L8.36719 15.7422C7.58569 15.4978 6.87671 15.0842 6.2832 14.5391L5.98242 14.2598L5.5957 14.3887L3.85547 14.9902L3.03906 13.5938L4.41406 12.3691L4.73633 12.1113L4.62891 11.7031C4.54028 11.311 4.5 10.9109 4.5 10.5C4.5 10.0891 4.54028 9.68896 4.62891 9.29688L4.73633 8.88867L4.41406 8.63086L3.03906 7.40625L3.85547 6.00977L5.5957 6.61133L5.98242 6.74023L6.2832 6.46094C6.87671 5.91577 7.58569 5.5022 8.36719 5.25781L8.75391 5.12891L8.83984 4.7207L9.18359 2.9375ZM10 7.0625C8.10938 7.0625 6.5625 8.60938 6.5625 10.5C6.5625 12.3906 8.10938 13.9375 10 13.9375C11.8906 13.9375 13.4375 12.3906 13.4375 10.5C13.4375 8.60938 11.8906 7.0625 10 7.0625ZM10 8.4375C11.1467 8.4375 12.0625 9.35327 12.0625 10.5C12.0625 11.6467 11.1467 12.5625 10 12.5625C8.85327 12.5625 7.9375 11.6467 7.9375 10.5C7.9375 9.35327 8.85327 8.4375 10 8.4375Z"
        fill="white" />
</svg>