<svg  viewBox="0 0 20 20" fill="none" xmlns="http://www.w3.org/2000/svg">
<path fill-rule="evenodd" clip-rule="evenodd" d="M2.2 3.2V4.8H16.8V3.2H2.2ZM2 2C1.44772 2 1 2.44772 1 3V5C1 5.55228 1.44772 6 2 6H17C17.5523 6 18 5.55228 18 5V3C18 2.44772 17.5523 2 17 2H2ZM2.2 8.2V9.8H9.8V8.2H2.2ZM2 7C1.44772 7 1 7.44772 1 8V10C1 10.5523 1.44772 11 2 11H10C10.5523 11 11 10.5523 11 10V8C11 7.44772 10.5523 7 10 7H2ZM2.2 14.8V13.2H13.8V14.8H2.2ZM1 13C1 12.4477 1.44772 12 2 12H14C14.5523 12 15 12.4477 15 13V15C15 15.5523 14.5523 16 14 16H2C1.44772 16 1 15.5523 1 15V13Z" fill="white"/>
</svg>
