<svg  viewBox="0 0 20 20" fill="none" xmlns="http://www.w3.org/2000/svg">
<g clip-path="url(#clip0_62_1262)">
<path d="M16.6667 0.952393H8.33333C7.02009 0.952393 5.95238 2.01824 5.95238 3.33334V11.6667C5.95238 12.9818 7.01823 14.0476 8.33333 14.0476H16.6667C17.9818 14.0476 19.0476 12.9818 19.0476 11.6667V3.33334C19.0476 2.01824 17.9799 0.952393 16.6667 0.952393ZM17.2619 11.6667C17.2619 11.9949 16.9949 12.2619 16.6667 12.2619H8.33333C8.00595 12.2619 7.7381 11.9941 7.7381 11.6667V3.33334C7.7381 3.00515 8.00513 2.73811 8.33333 2.73811H16.6667C16.9949 2.73811 17.2619 3.00515 17.2619 3.33334V11.6667ZM11.3095 17.6191C11.3095 17.9473 11.0425 18.2143 10.7143 18.2143H2.38095C2.05275 18.2143 1.78571 17.9473 1.78571 17.6191V9.28573C1.78571 8.95753 2.05275 8.69049 2.38095 8.69049H4.7619V6.90477H2.38095C1.06585 6.90477 0 7.97248 0 9.28573V17.6191C0 18.9342 1.06585 20 2.38095 20H10.7143C12.0294 20 13.0952 18.9342 13.0952 17.6191V15.2381H11.3095V17.6191Z" fill="#BFBFBF"/>
</g>
<defs>
<clipPath id="clip0_62_1262">
<rect width="20" height="20" fill="white"/>
</clipPath>
</defs>
</svg>
