<svg  viewBox="0 0 20 20" fill="none" xmlns="http://www.w3.org/2000/svg">
<mask id="path-1-inside-1_57_153" fill="white">
<path fill-rule="evenodd" clip-rule="evenodd" d="M2.56942 3.49717H8.40275C8.52356 3.49717 8.6215 3.5979 8.6215 3.72217V8.22217C8.6215 8.34643 8.52356 8.44717 8.40275 8.44717H2.56942C2.44861 8.44717 2.35067 8.34643 2.35067 8.22217V3.72217C2.35067 3.5979 2.4486 3.49717 2.56942 3.49717ZM1.11108 3.72217C1.11108 2.89374 1.764 2.22217 2.56942 2.22217H8.40275C9.20817 2.22217 9.86108 2.89374 9.86108 3.72217V8.22217C9.86108 9.0506 9.20817 9.72217 8.40275 9.72217H2.56942C1.764 9.72217 1.11108 9.0506 1.11108 8.22217V3.72217ZM2.56942 12.2472H8.40275C8.52356 12.2472 8.6215 12.3479 8.6215 12.4722V16.9722C8.6215 17.0964 8.52356 17.1972 8.40275 17.1972H2.56942C2.44861 17.1972 2.35067 17.0964 2.35067 16.9722V12.4722C2.35067 12.3479 2.4486 12.2472 2.56942 12.2472ZM1.11108 12.4722C1.11108 11.6437 1.764 10.9722 2.56942 10.9722H8.40275C9.20817 10.9722 9.86108 11.6437 9.86108 12.4722V16.9722C9.86108 17.8006 9.20817 18.4722 8.40275 18.4722H2.56942C1.764 18.4722 1.11108 17.8006 1.11108 16.9722V12.4722ZM18.4028 3.49717H12.5694C12.4486 3.49717 12.3507 3.5979 12.3507 3.72217V8.22217C12.3507 8.34643 12.4486 8.44717 12.5694 8.44717H18.4028C18.5236 8.44717 18.6215 8.34643 18.6215 8.22217V3.72217C18.6215 3.5979 18.5236 3.49717 18.4028 3.49717ZM12.5694 2.22217C11.764 2.22217 11.1111 2.89374 11.1111 3.72217V8.22217C11.1111 9.0506 11.764 9.72217 12.5694 9.72217H18.4028C19.2082 9.72217 19.8611 9.0506 19.8611 8.22217V3.72217C19.8611 2.89374 19.2082 2.22217 18.4028 2.22217H12.5694ZM12.5694 12.2472H18.4028C18.5236 12.2472 18.6215 12.3479 18.6215 12.4722V16.9722C18.6215 17.0964 18.5236 17.1972 18.4028 17.1972H12.5694C12.4486 17.1972 12.3507 17.0964 12.3507 16.9722V12.4722C12.3507 12.3479 12.4486 12.2472 12.5694 12.2472ZM11.1111 12.4722C11.1111 11.6437 11.764 10.9722 12.5694 10.9722H18.4028C19.2082 10.9722 19.8611 11.6437 19.8611 12.4722V16.9722C19.8611 17.8006 19.2082 18.4722 18.4028 18.4722H12.5694C11.764 18.4722 11.1111 17.8006 11.1111 16.9722V12.4722Z"/>
</mask>
<path fill-rule="evenodd" clip-rule="evenodd" d="M2.56942 3.49717H8.40275C8.52356 3.49717 8.6215 3.5979 8.6215 3.72217V8.22217C8.6215 8.34643 8.52356 8.44717 8.40275 8.44717H2.56942C2.44861 8.44717 2.35067 8.34643 2.35067 8.22217V3.72217C2.35067 3.5979 2.4486 3.49717 2.56942 3.49717ZM1.11108 3.72217C1.11108 2.89374 1.764 2.22217 2.56942 2.22217H8.40275C9.20817 2.22217 9.86108 2.89374 9.86108 3.72217V8.22217C9.86108 9.0506 9.20817 9.72217 8.40275 9.72217H2.56942C1.764 9.72217 1.11108 9.0506 1.11108 8.22217V3.72217ZM2.56942 12.2472H8.40275C8.52356 12.2472 8.6215 12.3479 8.6215 12.4722V16.9722C8.6215 17.0964 8.52356 17.1972 8.40275 17.1972H2.56942C2.44861 17.1972 2.35067 17.0964 2.35067 16.9722V12.4722C2.35067 12.3479 2.4486 12.2472 2.56942 12.2472ZM1.11108 12.4722C1.11108 11.6437 1.764 10.9722 2.56942 10.9722H8.40275C9.20817 10.9722 9.86108 11.6437 9.86108 12.4722V16.9722C9.86108 17.8006 9.20817 18.4722 8.40275 18.4722H2.56942C1.764 18.4722 1.11108 17.8006 1.11108 16.9722V12.4722ZM18.4028 3.49717H12.5694C12.4486 3.49717 12.3507 3.5979 12.3507 3.72217V8.22217C12.3507 8.34643 12.4486 8.44717 12.5694 8.44717H18.4028C18.5236 8.44717 18.6215 8.34643 18.6215 8.22217V3.72217C18.6215 3.5979 18.5236 3.49717 18.4028 3.49717ZM12.5694 2.22217C11.764 2.22217 11.1111 2.89374 11.1111 3.72217V8.22217C11.1111 9.0506 11.764 9.72217 12.5694 9.72217H18.4028C19.2082 9.72217 19.8611 9.0506 19.8611 8.22217V3.72217C19.8611 2.89374 19.2082 2.22217 18.4028 2.22217H12.5694ZM12.5694 12.2472H18.4028C18.5236 12.2472 18.6215 12.3479 18.6215 12.4722V16.9722C18.6215 17.0964 18.5236 17.1972 18.4028 17.1972H12.5694C12.4486 17.1972 12.3507 17.0964 12.3507 16.9722V12.4722C12.3507 12.3479 12.4486 12.2472 12.5694 12.2472ZM11.1111 12.4722C11.1111 11.6437 11.764 10.9722 12.5694 10.9722H18.4028C19.2082 10.9722 19.8611 11.6437 19.8611 12.4722V16.9722C19.8611 17.8006 19.2082 18.4722 18.4028 18.4722H12.5694C11.764 18.4722 11.1111 17.8006 11.1111 16.9722V12.4722Z" fill="white"/>
<path d="M8.40275 1.49717H2.56942V5.49717H8.40275V1.49717ZM10.6215 3.72217C10.6215 2.54682 9.68087 1.49717 8.40275 1.49717V5.49717C7.36626 5.49717 6.6215 4.64899 6.6215 3.72217H10.6215ZM10.6215 8.22217V3.72217H6.6215V8.22217H10.6215ZM8.40275 10.4472C9.68087 10.4472 10.6215 9.39752 10.6215 8.22217H6.6215C6.6215 7.29535 7.36626 6.44717 8.40275 6.44717V10.4472ZM2.56942 10.4472H8.40275V6.44717H2.56942V10.4472ZM0.350667 8.22217C0.350667 9.39751 1.2913 10.4472 2.56942 10.4472V6.44717C3.60591 6.44717 4.35067 7.29535 4.35067 8.22217H0.350667ZM0.350667 3.72217V8.22217H4.35067V3.72217H0.350667ZM2.56942 1.49717C1.2913 1.49717 0.350667 2.54682 0.350667 3.72217H4.35067C4.35067 4.64899 3.60591 5.49717 2.56942 5.49717V1.49717ZM2.56942 0.222168C0.606696 0.222168 -0.888916 1.84266 -0.888916 3.72217H3.11108C3.11108 3.94483 2.92131 4.22217 2.56942 4.22217V0.222168ZM8.40275 0.222168H2.56942V4.22217H8.40275V0.222168ZM11.8611 3.72217C11.8611 1.84266 10.3655 0.222168 8.40275 0.222168V4.22217C8.05086 4.22217 7.86108 3.94483 7.86108 3.72217H11.8611ZM11.8611 8.22217V3.72217H7.86108V8.22217H11.8611ZM8.40275 11.7222C10.3655 11.7222 11.8611 10.1017 11.8611 8.22217H7.86108C7.86108 7.99951 8.05086 7.72217 8.40275 7.72217V11.7222ZM2.56942 11.7222H8.40275V7.72217H2.56942V11.7222ZM-0.888916 8.22217C-0.888916 10.1017 0.606696 11.7222 2.56942 11.7222V7.72217C2.92131 7.72217 3.11108 7.99951 3.11108 8.22217H-0.888916ZM-0.888916 3.72217V8.22217H3.11108V3.72217H-0.888916ZM8.40275 10.2472H2.56942V14.2472H8.40275V10.2472ZM10.6215 12.4722C10.6215 11.2968 9.68088 10.2472 8.40275 10.2472V14.2472C7.36625 14.2472 6.6215 13.399 6.6215 12.4722H10.6215ZM10.6215 16.9722V12.4722H6.6215V16.9722H10.6215ZM8.40275 19.1972C9.68087 19.1972 10.6215 18.1475 10.6215 16.9722H6.6215C6.6215 16.0453 7.36626 15.1972 8.40275 15.1972V19.1972ZM2.56942 19.1972H8.40275V15.1972H2.56942V19.1972ZM0.350667 16.9722C0.350667 18.1475 1.29129 19.1972 2.56942 19.1972V15.1972C3.60592 15.1972 4.35067 16.0454 4.35067 16.9722H0.350667ZM0.350667 12.4722V16.9722H4.35067V12.4722H0.350667ZM2.56942 10.2472C1.29129 10.2472 0.350667 11.2968 0.350667 12.4722H4.35067C4.35067 13.399 3.60592 14.2472 2.56942 14.2472V10.2472ZM2.56942 8.97217C0.606696 8.97217 -0.888916 10.5927 -0.888916 12.4722H3.11108C3.11108 12.6948 2.92131 12.9722 2.56942 12.9722V8.97217ZM8.40275 8.97217H2.56942V12.9722H8.40275V8.97217ZM11.8611 12.4722C11.8611 10.5927 10.3655 8.97217 8.40275 8.97217V12.9722C8.05086 12.9722 7.86108 12.6948 7.86108 12.4722H11.8611ZM11.8611 16.9722V12.4722H7.86108V16.9722H11.8611ZM8.40275 20.4722C10.3655 20.4722 11.8611 18.8517 11.8611 16.9722H7.86108C7.86108 16.7495 8.05086 16.4722 8.40275 16.4722V20.4722ZM2.56942 20.4722H8.40275V16.4722H2.56942V20.4722ZM-0.888916 16.9722C-0.888916 18.8517 0.606698 20.4722 2.56942 20.4722V16.4722C2.92131 16.4722 3.11108 16.7495 3.11108 16.9722H-0.888916ZM-0.888916 12.4722V16.9722H3.11108V12.4722H-0.888916ZM12.5694 5.49717H18.4028V1.49717H12.5694V5.49717ZM14.3507 3.72217C14.3507 4.64899 13.6059 5.49717 12.5694 5.49717V1.49717C11.2913 1.49717 10.3507 2.54682 10.3507 3.72217H14.3507ZM14.3507 8.22217V3.72217H10.3507V8.22217H14.3507ZM12.5694 6.44717C13.6059 6.44717 14.3507 7.29534 14.3507 8.22217H10.3507C10.3507 9.39752 11.2913 10.4472 12.5694 10.4472V6.44717ZM18.4028 6.44717H12.5694V10.4472H18.4028V6.44717ZM16.6215 8.22217C16.6215 7.29533 17.3663 6.44717 18.4028 6.44717V10.4472C19.6809 10.4472 20.6215 9.39754 20.6215 8.22217H16.6215ZM16.6215 3.72217V8.22217H20.6215V3.72217H16.6215ZM18.4028 5.49717C17.3663 5.49717 16.6215 4.649 16.6215 3.72217H20.6215C20.6215 2.5468 19.6809 1.49717 18.4028 1.49717V5.49717ZM13.1111 3.72217C13.1111 3.94483 12.9213 4.22217 12.5694 4.22217V0.222168C10.6067 0.222168 9.11108 1.84266 9.11108 3.72217H13.1111ZM13.1111 8.22217V3.72217H9.11108V8.22217H13.1111ZM12.5694 7.72217C12.9213 7.72217 13.1111 7.99951 13.1111 8.22217H9.11108C9.11108 10.1017 10.6067 11.7222 12.5694 11.7222V7.72217ZM18.4028 7.72217H12.5694V11.7222H18.4028V7.72217ZM17.8611 8.22217C17.8611 7.99951 18.0509 7.72217 18.4028 7.72217V11.7222C20.3655 11.7222 21.8611 10.1017 21.8611 8.22217H17.8611ZM17.8611 3.72217V8.22217H21.8611V3.72217H17.8611ZM18.4028 4.22217C18.0509 4.22217 17.8611 3.94483 17.8611 3.72217H21.8611C21.8611 1.84266 20.3655 0.222168 18.4028 0.222168V4.22217ZM12.5694 4.22217H18.4028V0.222168H12.5694V4.22217ZM18.4028 10.2472H12.5694V14.2472H18.4028V10.2472ZM20.6215 12.4722C20.6215 11.2968 19.6809 10.2472 18.4028 10.2472V14.2472C17.3663 14.2472 16.6215 13.399 16.6215 12.4722H20.6215ZM20.6215 16.9722V12.4722H16.6215V16.9722H20.6215ZM18.4028 19.1972C19.6809 19.1972 20.6215 18.1475 20.6215 16.9722H16.6215C16.6215 16.0453 17.3663 15.1972 18.4028 15.1972V19.1972ZM12.5694 19.1972H18.4028V15.1972H12.5694V19.1972ZM10.3507 16.9722C10.3507 18.1475 11.2913 19.1972 12.5694 19.1972V15.1972C13.6059 15.1972 14.3507 16.0453 14.3507 16.9722H10.3507ZM10.3507 12.4722V16.9722H14.3507V12.4722H10.3507ZM12.5694 10.2472C11.2913 10.2472 10.3507 11.2968 10.3507 12.4722H14.3507C14.3507 13.399 13.6059 14.2472 12.5694 14.2472V10.2472ZM12.5694 8.97217C10.6067 8.97217 9.11108 10.5927 9.11108 12.4722H13.1111C13.1111 12.6948 12.9213 12.9722 12.5694 12.9722V8.97217ZM18.4028 8.97217H12.5694V12.9722H18.4028V8.97217ZM21.8611 12.4722C21.8611 10.5927 20.3655 8.97217 18.4028 8.97217V12.9722C18.0509 12.9722 17.8611 12.6948 17.8611 12.4722H21.8611ZM21.8611 16.9722V12.4722H17.8611V16.9722H21.8611ZM18.4028 20.4722C20.3655 20.4722 21.8611 18.8517 21.8611 16.9722H17.8611C17.8611 16.7495 18.0509 16.4722 18.4028 16.4722V20.4722ZM12.5694 20.4722H18.4028V16.4722H12.5694V20.4722ZM9.11108 16.9722C9.11108 18.8517 10.6067 20.4722 12.5694 20.4722V16.4722C12.9213 16.4722 13.1111 16.7495 13.1111 16.9722H9.11108ZM9.11108 12.4722V16.9722H13.1111V12.4722H9.11108Z" fill="white" mask="url(#path-1-inside-1_57_153)"/>
</svg>
