<svg  viewBox="0 0 20 20" fill="none" xmlns="http://www.w3.org/2000/svg">
<path fill-rule="evenodd" clip-rule="evenodd" d="M3.82353 1.41176H14.1765C15.1121 1.41176 15.8706 2.35987 15.8706 3.52941V16.4706C15.8706 17.6401 15.1121 18.5882 14.1765 18.5882H3.82353C2.88789 18.5882 2.12941 17.6401 2.12941 16.4706V3.52941C2.12941 2.35987 2.88789 1.41176 3.82353 1.41176ZM1 3.52941C1 1.58017 2.26414 0 3.82353 0H14.1765C15.7359 0 17 1.58017 17 3.52941V16.4706C17 18.4198 15.7359 20 14.1765 20H3.82353C2.26414 20 1 18.4198 1 16.4706V3.52941ZM4.65 3.7C4.29101 3.7 4 3.99101 4 4.35C4 4.70899 4.29101 5 4.65 5H13.35C13.709 5 14 4.70899 14 4.35C14 3.99101 13.709 3.7 13.35 3.7H4.65ZM4 7.35C4 6.99101 4.29101 6.7 4.65 6.7H13.35C13.709 6.7 14 6.99101 14 7.35C14 7.70899 13.709 8 13.35 8H4.65C4.29101 8 4 7.70899 4 7.35ZM4.65 9.7C4.29101 9.7 4 9.99101 4 10.35C4 10.709 4.29101 11 4.65 11H13.35C13.709 11 14 10.709 14 10.35C14 9.99101 13.709 9.7 13.35 9.7H4.65Z" fill="white"/>
</svg>
