<svg width="43" height="43" viewBox="0 0 43 43" fill="none" xmlns="http://www.w3.org/2000/svg">
    <path fill-rule="evenodd" clip-rule="evenodd"
        d="M3.89098 21.5C3.89098 11.8116 11.757 3.92531 21.5 3.92531C22.5745 3.92531 23.4455 3.0466 23.4455 1.96266C23.4455 0.878711 22.5745 0 21.5 0C9.64364 0 0 9.60804 0 21.5C0 33.392 9.64364 43 21.5 43C33.0942 43 42.5709 33.8136 42.9859 22.286C43.0416 20.7385 41.7973 19.5373 40.347 19.5373H38.0461L31.5305 19.5373H21.406C20.3315 19.5373 19.4605 20.416 19.4605 21.5C19.4605 22.5839 20.3315 23.4627 21.406 23.4627H21.4954L21.5 23.4627H24.8844L27.3194 23.4627C26.4956 25.9117 24.1722 27.6937 21.406 27.6937C17.942 27.6937 15.1724 24.8994 15.1724 21.5C15.1724 18.1006 17.942 15.3063 21.406 15.3063C22.4804 15.3063 23.3515 14.4276 23.3515 13.3436C23.3515 12.2597 22.4804 11.381 21.406 11.381C15.8356 11.381 11.2814 15.8901 11.2814 21.5C11.2814 27.1099 15.8356 31.619 21.406 31.619C26.3091 31.619 30.4249 28.1254 31.3406 23.4627H38.0461H39.0005C38.0241 32.2303 30.5757 39.0747 21.5 39.0747C11.757 39.0747 3.89098 31.1884 3.89098 21.5ZM32.2826 1.96266C32.2826 0.878711 31.4116 0 30.3371 0C29.2627 0 28.3916 0.878711 28.3916 1.96266V13.7888H41.0545C42.129 13.7888 43 12.9101 43 11.8262C43 10.7422 42.129 9.86351 41.0545 9.86351H32.2826V1.96266Z"
        fill="white" />
</svg>