<svg width="136" height="44" viewBox="0 0 136 44" fill="none" xmlns="http://www.w3.org/2000/svg">
    <path fill-rule="evenodd" clip-rule="evenodd"
        d="M3.89098 22C3.89098 12.3116 11.757 4.42531 21.5 4.42531C22.5745 4.42531 23.4455 3.5466 23.4455 2.46266C23.4455 1.37871 22.5745 0.5 21.5 0.5C9.64364 0.5 0 10.108 0 22C0 33.892 9.64364 43.5 21.5 43.5C33.0942 43.5 42.5709 34.3136 42.9859 22.786C43.0416 21.2385 41.7973 20.0373 40.347 20.0373H38.0461L31.5305 20.0373H21.406C20.3315 20.0373 19.4605 20.916 19.4605 22C19.4605 23.0839 20.3315 23.9627 21.406 23.9627H21.4954L21.5 23.9627H24.8844L27.3194 23.9627C26.4956 26.4117 24.1722 28.1937 21.406 28.1937C17.942 28.1937 15.1724 25.3994 15.1724 22C15.1724 18.6006 17.942 15.8063 21.406 15.8063C22.4804 15.8063 23.3515 14.9276 23.3515 13.8436C23.3515 12.7597 22.4804 11.881 21.406 11.881C15.8356 11.881 11.2814 16.3901 11.2814 22C11.2814 27.6099 15.8356 32.119 21.406 32.119C26.3091 32.119 30.4249 28.6254 31.3406 23.9627H38.0461H39.0005C38.0241 32.7303 30.5757 39.5747 21.5 39.5747C11.757 39.5747 3.89098 31.6884 3.89098 22ZM32.2826 2.46266C32.2826 1.37871 31.4116 0.5 30.3371 0.5C29.2627 0.5 28.3916 1.37871 28.3916 2.46266V14.2888H41.0545C42.129 14.2888 43 13.4101 43 12.3262C43 11.2422 42.129 10.3635 41.0545 10.3635H32.2826V2.46266Z"
        fill="white" />
    <path
        d="M66.4258 28.5C65.349 28.5 64.3576 28.3435 63.4515 28.0306C62.5586 27.7056 61.7773 27.2542 61.1076 26.6764C60.4379 26.0866 59.9192 25.3944 59.5515 24.6C59.1838 23.8056 59 22.9389 59 22C59 21.0611 59.1838 20.1944 59.5515 19.4C59.9192 18.6056 60.4379 17.9194 61.1076 17.3417C61.7904 16.7519 62.5848 16.3005 63.4909 15.9875C64.397 15.6625 65.3884 15.5 66.4652 15.5C67.6338 15.5 68.6843 15.6745 69.6167 16.0236C70.5621 16.3727 71.3566 16.8843 72 17.5583L70.3848 19.0028C69.8465 18.5093 69.2621 18.1481 68.6318 17.9194C68.0146 17.6787 67.3318 17.5583 66.5833 17.5583C65.8611 17.5583 65.1914 17.6667 64.5742 17.8833C63.9571 18.1 63.4253 18.4069 62.9788 18.8042C62.5323 19.2014 62.1843 19.6708 61.9348 20.2125C61.6985 20.7542 61.5803 21.35 61.5803 22C61.5803 22.638 61.6985 23.2278 61.9348 23.7694C62.1843 24.3111 62.5323 24.7866 62.9788 25.1958C63.4253 25.5931 63.9505 25.9 64.5545 26.1167C65.1586 26.3333 65.8283 26.4417 66.5636 26.4417C67.2465 26.4417 67.903 26.3454 68.5333 26.1528C68.8531 26.0511 69.1307 25.9167 69.4 25.7496V23.7727H67.2727V21.4091H71.788V23.7727H71.783V26.8517C71.0608 27.3813 70.2601 27.8259 69.3015 28.1028C68.3561 28.3676 67.3975 28.5 66.4258 28.5Z"
        fill="white" />
    <path fill-rule="evenodd" clip-rule="evenodd"
        d="M77.4207 27.7962C78.2815 28.2654 79.2634 28.5 80.3664 28.5C81.4828 28.5 82.4714 28.2654 83.3323 27.7962C84.2066 27.3135 84.8858 26.6566 85.37 25.8254C85.8677 24.9942 86.1166 24.0491 86.1166 22.9899C86.1166 21.904 85.8677 20.9522 85.37 20.1344C84.8858 19.3166 84.2066 18.6731 83.3323 18.2038C82.4714 17.7346 81.4828 17.5 80.3664 17.5C79.2634 17.5 78.2815 17.7346 77.4207 18.2038C76.5598 18.6731 75.8805 19.3233 75.3829 20.1545C74.8852 20.9723 74.6364 21.9174 74.6364 22.9899C74.6364 24.0491 74.8852 24.9942 75.3829 25.8254C75.8805 26.6566 76.5598 27.3135 77.4207 27.7962ZM82.0208 25.9461C81.5366 26.2142 80.9851 26.3483 80.3664 26.3483C79.7611 26.3483 79.2163 26.2142 78.7321 25.9461C78.2613 25.6779 77.8847 25.2892 77.6022 24.7797C77.3198 24.2703 77.1785 23.6737 77.1785 22.9899C77.1785 22.2928 77.3198 21.6962 77.6022 21.2002C77.8847 20.6907 78.2613 20.3019 78.7321 20.0338C79.2163 19.7657 79.7678 19.6316 80.3865 19.6316C80.9918 19.6316 81.5366 19.7657 82.0208 20.0338C82.505 20.3019 82.8817 20.6907 83.1507 21.2002C83.4331 21.6962 83.5744 22.2928 83.5744 22.9899C83.5744 23.6737 83.4331 24.2703 83.1507 24.7797C82.8817 25.2892 82.505 25.6779 82.0208 25.9461Z"
        fill="white" />
    <path
        d="M104.407 18.0027C103.748 17.6676 102.988 17.5 102.127 17.5C101.064 17.5 100.129 17.7413 99.3224 18.2239C98.8269 18.5203 98.4176 18.8772 98.0945 19.2949C97.8348 18.8674 97.4976 18.5171 97.0829 18.2441C96.3431 17.748 95.4688 17.5 94.46 17.5C93.5723 17.5 92.7787 17.681 92.0792 18.043C91.6252 18.2826 91.2418 18.5956 90.9292 18.982V17.6207H88.5282V28.3592H91.0502V22.9095C91.0502 22.1856 91.1646 21.589 91.3932 21.1197C91.6353 20.6505 91.9649 20.2952 92.3819 20.0539C92.8123 19.8126 93.3032 19.692 93.8547 19.692C94.6349 19.692 95.2334 19.9266 95.6504 20.3958C96.0674 20.865 96.2759 21.5756 96.2759 22.5274V28.3592H98.7979V22.9095C98.7979 22.1856 98.9122 21.589 99.1409 21.1197C99.383 20.6505 99.7125 20.2952 100.129 20.0539C100.56 19.8126 101.051 19.692 101.602 19.692C102.382 19.692 102.981 19.9266 103.398 20.3958C103.815 20.865 104.023 21.5756 104.023 22.5274V28.3592H106.545V22.2057C106.545 21.1197 106.357 20.2349 105.981 19.5512C105.604 18.8541 105.079 18.3379 104.407 18.0027Z"
        fill="white" />
    <path fill-rule="evenodd" clip-rule="evenodd"
        d="M116.406 28.3592V27.0562C116.156 27.43 115.813 27.737 115.377 27.9771C114.759 28.3257 113.972 28.5 113.017 28.5C112.21 28.5 111.503 28.3659 110.898 28.0978C110.293 27.8163 109.822 27.4342 109.486 26.9516C109.163 26.4555 109.002 25.8991 109.002 25.2824C109.002 24.6792 109.143 24.1362 109.425 23.6536C109.721 23.1709 110.199 22.7888 110.858 22.5073C111.517 22.2258 112.391 22.085 113.481 22.085H116.265V21.9241C116.265 21.1868 116.043 20.617 115.599 20.2148C115.155 19.7992 114.483 19.5914 113.582 19.5914C112.976 19.5914 112.378 19.6853 111.786 19.8729C111.208 20.0606 110.717 20.3221 110.313 20.6572L109.324 18.8272C109.903 18.3848 110.589 18.0564 111.382 17.8419C112.189 17.614 113.023 17.5 113.884 17.5C115.445 17.5 116.648 17.8754 117.496 18.6261C118.357 19.3635 118.787 20.5098 118.787 22.0649V28.3592H116.406ZM116.265 23.7541V25.0009C116.05 25.5506 115.693 25.9662 115.196 26.2477C114.711 26.5293 114.16 26.67 113.541 26.67C112.896 26.67 112.391 26.536 112.028 26.2678C111.665 25.9997 111.483 25.6377 111.483 25.1819C111.483 24.7797 111.631 24.4445 111.927 24.1764C112.223 23.8949 112.801 23.7541 113.662 23.7541H116.265Z"
        fill="white" />
    <path
        d="M130.437 18.0027C129.765 17.6676 128.998 17.5 128.137 17.5C127.196 17.5 126.362 17.6877 125.635 18.0631C125.156 18.3066 124.752 18.623 124.425 19.0121V17.6207H122.024V28.3592H124.546V22.9296C124.546 22.2057 124.667 21.6091 124.909 21.1399C125.164 20.6572 125.521 20.2952 125.978 20.0539C126.436 19.8126 126.96 19.692 127.552 19.692C128.359 19.692 128.984 19.9266 129.428 20.3958C129.886 20.865 130.114 21.5756 130.114 22.5274V28.3592H132.636V22.2057C132.636 21.1197 132.441 20.2349 132.051 19.5512C131.661 18.8541 131.123 18.3379 130.437 18.0027Z"
        fill="white" />
    <path
        d="M66.4258 28.5C65.349 28.5 64.3576 28.3435 63.4515 28.0306C62.5586 27.7056 61.7773 27.2542 61.1076 26.6764C60.4379 26.0866 59.9192 25.3944 59.5515 24.6C59.1838 23.8056 59 22.9389 59 22C59 21.0611 59.1838 20.1944 59.5515 19.4C59.9192 18.6056 60.4379 17.9194 61.1076 17.3417C61.7904 16.7519 62.5848 16.3005 63.4909 15.9875C64.397 15.6625 65.3884 15.5 66.4652 15.5C67.6338 15.5 68.6843 15.6745 69.6167 16.0236C70.5621 16.3727 71.3566 16.8843 72 17.5583L70.3848 19.0028C69.8465 18.5093 69.2621 18.1481 68.6318 17.9194C68.0146 17.6787 67.3318 17.5583 66.5833 17.5583C65.8611 17.5583 65.1914 17.6667 64.5742 17.8833C63.9571 18.1 63.4253 18.4069 62.9788 18.8042C62.5323 19.2014 62.1843 19.6708 61.9348 20.2125C61.6985 20.7542 61.5803 21.35 61.5803 22C61.5803 22.638 61.6985 23.2278 61.9348 23.7694C62.1843 24.3111 62.5323 24.7866 62.9788 25.1958C63.4253 25.5931 63.9505 25.9 64.5545 26.1167C65.1586 26.3333 65.8283 26.4417 66.5636 26.4417C67.2465 26.4417 67.903 26.3454 68.5333 26.1528C68.8531 26.0511 69.1307 25.9167 69.4 25.7496V23.7727H67.2727V21.4091H71.788V23.7727H71.783V26.8517C71.0608 27.3813 70.2601 27.8259 69.3015 28.1028C68.3561 28.3676 67.3975 28.5 66.4258 28.5Z"
        stroke="white" />
    <path fill-rule="evenodd" clip-rule="evenodd"
        d="M77.4207 27.7962C78.2815 28.2654 79.2634 28.5 80.3664 28.5C81.4828 28.5 82.4714 28.2654 83.3323 27.7962C84.2066 27.3135 84.8858 26.6566 85.37 25.8254C85.8677 24.9942 86.1166 24.0491 86.1166 22.9899C86.1166 21.904 85.8677 20.9522 85.37 20.1344C84.8858 19.3166 84.2066 18.6731 83.3323 18.2038C82.4714 17.7346 81.4828 17.5 80.3664 17.5C79.2634 17.5 78.2815 17.7346 77.4207 18.2038C76.5598 18.6731 75.8805 19.3233 75.3829 20.1545C74.8852 20.9723 74.6364 21.9174 74.6364 22.9899C74.6364 24.0491 74.8852 24.9942 75.3829 25.8254C75.8805 26.6566 76.5598 27.3135 77.4207 27.7962ZM82.0208 25.9461C81.5366 26.2142 80.9851 26.3483 80.3664 26.3483C79.7611 26.3483 79.2163 26.2142 78.7321 25.9461C78.2613 25.6779 77.8847 25.2892 77.6022 24.7797C77.3198 24.2703 77.1785 23.6737 77.1785 22.9899C77.1785 22.2928 77.3198 21.6962 77.6022 21.2002C77.8847 20.6907 78.2613 20.3019 78.7321 20.0338C79.2163 19.7657 79.7678 19.6316 80.3865 19.6316C80.9918 19.6316 81.5366 19.7657 82.0208 20.0338C82.505 20.3019 82.8817 20.6907 83.1507 21.2002C83.4331 21.6962 83.5744 22.2928 83.5744 22.9899C83.5744 23.6737 83.4331 24.2703 83.1507 24.7797C82.8817 25.2892 82.505 25.6779 82.0208 25.9461Z"
        stroke="white" />
    <path
        d="M104.407 18.0027C103.748 17.6676 102.988 17.5 102.127 17.5C101.064 17.5 100.129 17.7413 99.3224 18.2239C98.8269 18.5203 98.4176 18.8772 98.0945 19.2949C97.8348 18.8674 97.4976 18.5171 97.0829 18.2441C96.3431 17.748 95.4688 17.5 94.46 17.5C93.5723 17.5 92.7787 17.681 92.0792 18.043C91.6252 18.2826 91.2418 18.5956 90.9292 18.982V17.6207H88.5282V28.3592H91.0502V22.9095C91.0502 22.1856 91.1646 21.589 91.3932 21.1197C91.6353 20.6505 91.9649 20.2952 92.3819 20.0539C92.8123 19.8126 93.3032 19.692 93.8547 19.692C94.6349 19.692 95.2334 19.9266 95.6504 20.3958C96.0674 20.865 96.2759 21.5756 96.2759 22.5274V28.3592H98.7979V22.9095C98.7979 22.1856 98.9122 21.589 99.1409 21.1197C99.383 20.6505 99.7125 20.2952 100.129 20.0539C100.56 19.8126 101.051 19.692 101.602 19.692C102.382 19.692 102.981 19.9266 103.398 20.3958C103.815 20.865 104.023 21.5756 104.023 22.5274V28.3592H106.545V22.2057C106.545 21.1197 106.357 20.2349 105.981 19.5512C105.604 18.8541 105.079 18.3379 104.407 18.0027Z"
        stroke="white" />
    <path fill-rule="evenodd" clip-rule="evenodd"
        d="M116.406 28.3592V27.0562C116.156 27.43 115.813 27.737 115.377 27.9771C114.759 28.3257 113.972 28.5 113.017 28.5C112.21 28.5 111.503 28.3659 110.898 28.0978C110.293 27.8163 109.822 27.4342 109.486 26.9516C109.163 26.4555 109.002 25.8991 109.002 25.2824C109.002 24.6792 109.143 24.1362 109.425 23.6536C109.721 23.1709 110.199 22.7888 110.858 22.5073C111.517 22.2258 112.391 22.085 113.481 22.085H116.265V21.9241C116.265 21.1868 116.043 20.617 115.599 20.2148C115.155 19.7992 114.483 19.5914 113.582 19.5914C112.976 19.5914 112.378 19.6853 111.786 19.8729C111.208 20.0606 110.717 20.3221 110.313 20.6572L109.324 18.8272C109.903 18.3848 110.589 18.0564 111.382 17.8419C112.189 17.614 113.023 17.5 113.884 17.5C115.445 17.5 116.648 17.8754 117.496 18.6261C118.357 19.3635 118.787 20.5098 118.787 22.0649V28.3592H116.406ZM116.265 23.7541V25.0009C116.05 25.5506 115.693 25.9662 115.196 26.2477C114.711 26.5293 114.16 26.67 113.541 26.67C112.896 26.67 112.391 26.536 112.028 26.2678C111.665 25.9997 111.483 25.6377 111.483 25.1819C111.483 24.7797 111.631 24.4445 111.927 24.1764C112.223 23.8949 112.801 23.7541 113.662 23.7541H116.265Z"
        stroke="white" />
    <path
        d="M130.437 18.0027C129.765 17.6676 128.998 17.5 128.137 17.5C127.196 17.5 126.362 17.6877 125.635 18.0631C125.156 18.3066 124.752 18.623 124.425 19.0121V17.6207H122.024V28.3592H124.546V22.9296C124.546 22.2057 124.667 21.6091 124.909 21.1399C125.164 20.6572 125.521 20.2952 125.978 20.0539C126.436 19.8126 126.96 19.692 127.552 19.692C128.359 19.692 128.984 19.9266 129.428 20.3958C129.886 20.865 130.114 21.5756 130.114 22.5274V28.3592H132.636V22.2057C132.636 21.1197 132.441 20.2349 132.051 19.5512C131.661 18.8541 131.123 18.3379 130.437 18.0027Z"
        stroke="white" />
</svg>