<svg  viewBox="0 0 20 20" fill="none" xmlns="http://www.w3.org/2000/svg">
<path fill-rule="evenodd" clip-rule="evenodd" d="M18.8 10C18.8 14.8601 14.8601 18.8 10 18.8C5.13989 18.8 1.2 14.8601 1.2 10C1.2 5.13989 5.13989 1.2 10 1.2C14.8601 1.2 18.8 5.13989 18.8 10ZM20 10C20 15.5228 15.5228 20 10 20C4.47715 20 0 15.5228 0 10C0 4.47715 4.47715 0 10 0C15.5228 0 20 4.47715 20 10ZM9.29035 14.3281L15.3773 7.32809L14.6227 6.67191L8.91304 13.238L5.3773 9.17191L4.6227 9.82809L8.53574 14.3281L8.91304 14.762L9.29035 14.3281Z" fill="#0CB91D"/>
</svg>
