<svg width="520" height="321" viewBox="0 0 520 321" fill="none" xmlns="http://www.w3.org/2000/svg">
<g filter="url(#filter0_d_538_2702)">
<rect x="10" y="10.6172" width="500" height="300" rx="20" fill="url(#paint0_linear_538_2702)"/>
</g>
<mask id="mask0_538_2702" style="mask-type:alpha" maskUnits="userSpaceOnUse" x="10" y="10" width="500" height="301">
<rect x="10" y="10.6172" width="500" height="300" rx="20" fill="#6160DC"/>
</mask>
<g mask="url(#mask0_538_2702)">
<ellipse opacity="0.6" cx="372" cy="41.1172" rx="123" ry="123.5" fill="#6160DC"/>
<ellipse opacity="0.6" cx="490" cy="69.6172" rx="68" ry="69" fill="#9747FF"/>
<ellipse opacity="0.4" cx="448" cy="206.117" rx="30" ry="30.5" fill="#1D62E9"/>
</g>
<path d="M50.384 72.6172V68.3292L50.752 69.3212L45.936 61.4172H47.648L51.696 68.0892H50.768L54.832 61.4172H56.416L51.616 69.3212L51.968 68.3292V72.6172H50.384ZM60.4943 72.7132C59.6409 72.7132 58.8836 72.5265 58.2223 72.1532C57.5609 71.7799 57.0383 71.2679 56.6543 70.6172C56.2703 69.9559 56.0783 69.2092 56.0783 68.3772C56.0783 67.5345 56.2703 66.7879 56.6543 66.1372C57.0383 65.4865 57.5609 64.9799 58.2223 64.6172C58.8836 64.2439 59.6409 64.0572 60.4943 64.0572C61.3369 64.0572 62.0889 64.2439 62.7503 64.6172C63.4223 64.9799 63.9449 65.4865 64.3183 66.1372C64.7023 66.7772 64.8943 67.5239 64.8943 68.3772C64.8943 69.2199 64.7023 69.9665 64.3183 70.6172C63.9449 71.2679 63.4223 71.7799 62.7503 72.1532C62.0889 72.5265 61.3369 72.7132 60.4943 72.7132ZM60.4943 71.3692C61.0383 71.3692 61.5236 71.2465 61.9503 71.0012C62.3876 70.7559 62.7289 70.4092 62.9743 69.9612C63.2196 69.5025 63.3423 68.9745 63.3423 68.3772C63.3423 67.7692 63.2196 67.2465 62.9743 66.8092C62.7289 66.3612 62.3876 66.0145 61.9503 65.7692C61.5236 65.5239 61.0383 65.4012 60.4943 65.4012C59.9503 65.4012 59.4649 65.5239 59.0383 65.7692C58.6116 66.0145 58.2703 66.3612 58.0143 66.8092C57.7583 67.2465 57.6303 67.7692 57.6303 68.3772C57.6303 68.9745 57.7583 69.5025 58.0143 69.9612C58.2703 70.4092 58.6116 70.7559 59.0383 71.0012C59.4649 71.2465 59.9503 71.3692 60.4943 71.3692ZM70.5865 72.7132C69.8612 72.7132 69.2212 72.5799 68.6665 72.3132C68.1225 72.0465 67.6958 71.6412 67.3865 71.0972C67.0878 70.5425 66.9385 69.8492 66.9385 69.0172V64.1372H68.4745V68.8412C68.4745 69.6732 68.6718 70.2972 69.0665 70.7132C69.4718 71.1292 70.0372 71.3372 70.7625 71.3372C71.2958 71.3372 71.7598 71.2305 72.1545 71.0172C72.5492 70.7932 72.8532 70.4732 73.0665 70.0572C73.2798 69.6305 73.3865 69.1185 73.3865 68.5212V64.1372H74.9225V72.6172H73.4665V70.3292L73.7065 70.9372C73.4292 71.5025 73.0132 71.9399 72.4585 72.2492C71.9038 72.5585 71.2798 72.7132 70.5865 72.7132ZM77.8466 72.6172V64.1372H79.3186V66.4412L79.1746 65.8652C79.4093 65.2785 79.804 64.8305 80.3586 64.5212C80.9133 64.2119 81.596 64.0572 82.4066 64.0572V65.5452C82.3426 65.5345 82.2786 65.5292 82.2146 65.5292C82.1613 65.5292 82.108 65.5292 82.0546 65.5292C81.2333 65.5292 80.5826 65.7745 80.1026 66.2652C79.6226 66.7559 79.3826 67.4652 79.3826 68.3932V72.6172H77.8466ZM88.93 72.6172V61.4172H93.298C94.2793 61.4172 95.1167 61.5719 95.81 61.8812C96.5033 62.1905 97.0367 62.6385 97.41 63.2252C97.7833 63.8119 97.97 64.5105 97.97 65.3212C97.97 66.1319 97.7833 66.8305 97.41 67.4172C97.0367 67.9932 96.5033 68.4412 95.81 68.7612C95.1167 69.0705 94.2793 69.2252 93.298 69.2252H89.81L90.53 68.4732V72.6172H88.93ZM90.53 68.6332L89.81 67.8332H93.25C94.274 67.8332 95.0473 67.6145 95.57 67.1772C96.1033 66.7399 96.37 66.1212 96.37 65.3212C96.37 64.5212 96.1033 63.9025 95.57 63.4652C95.0473 63.0279 94.274 62.8092 93.25 62.8092H89.81L90.53 62.0092V68.6332ZM100.253 72.6172V60.7452H101.789V72.6172H100.253ZM109.986 72.6172V70.8252L109.906 70.4892V67.4332C109.906 66.7825 109.714 66.2812 109.33 65.9292C108.956 65.5665 108.391 65.3852 107.634 65.3852C107.132 65.3852 106.642 65.4705 106.162 65.6412C105.682 65.8012 105.276 66.0199 104.946 66.2972L104.306 65.1452C104.743 64.7932 105.266 64.5265 105.874 64.3452C106.492 64.1532 107.138 64.0572 107.81 64.0572C108.972 64.0572 109.868 64.3399 110.498 64.9052C111.127 65.4705 111.442 66.3345 111.442 67.4972V72.6172H109.986ZM107.202 72.7132C106.572 72.7132 106.018 72.6065 105.538 72.3932C105.068 72.1799 104.706 71.8865 104.45 71.5132C104.194 71.1292 104.066 70.6972 104.066 70.2172C104.066 69.7585 104.172 69.3425 104.386 68.9692C104.61 68.5959 104.967 68.2972 105.458 68.0732C105.959 67.8492 106.631 67.7372 107.474 67.7372H110.162V68.8412H107.538C106.77 68.8412 106.252 68.9692 105.986 69.2252C105.719 69.4812 105.586 69.7905 105.586 70.1532C105.586 70.5692 105.751 70.9052 106.082 71.1612C106.412 71.4065 106.871 71.5292 107.458 71.5292C108.034 71.5292 108.535 71.4012 108.962 71.1452C109.399 70.8892 109.714 70.5159 109.906 70.0252L110.21 71.0812C110.007 71.5825 109.65 71.9825 109.138 72.2812C108.626 72.5692 107.98 72.7132 107.202 72.7132ZM118.812 64.0572C119.505 64.0572 120.113 64.1905 120.636 64.4572C121.169 64.7239 121.585 65.1292 121.884 65.6732C122.183 66.2172 122.332 66.9052 122.332 67.7372V72.6172H120.796V67.9132C120.796 67.0919 120.593 66.4732 120.188 66.0572C119.793 65.6412 119.233 65.4332 118.508 65.4332C117.964 65.4332 117.489 65.5399 117.084 65.7532C116.679 65.9665 116.364 66.2812 116.14 66.6972C115.927 67.1132 115.82 67.6305 115.82 68.2492V72.6172H114.284V64.1372H115.756V66.4252L115.516 65.8172C115.793 65.2625 116.22 64.8305 116.796 64.5212C117.372 64.2119 118.044 64.0572 118.812 64.0572Z" fill="white"/>
<path d="M54.52 115.497H68.48V119.897H54.52V115.497ZM54.96 130.617H49.76V102.617H70.2V106.977H54.96V130.617ZM74.3581 130.617V109.257H79.1181V115.137L78.5581 113.417C79.1981 111.977 80.1981 110.884 81.5581 110.137C82.9448 109.391 84.6648 109.017 86.7181 109.017V113.777C86.5048 113.724 86.3048 113.697 86.1181 113.697C85.9315 113.671 85.7448 113.657 85.5581 113.657C83.6648 113.657 82.1581 114.217 81.0381 115.337C79.9181 116.431 79.3581 118.071 79.3581 120.257V130.617H74.3581ZM100.804 130.897C98.431 130.897 96.351 130.431 94.5644 129.497C92.8044 128.537 91.431 127.231 90.4444 125.577C89.4844 123.924 89.0044 122.044 89.0044 119.937C89.0044 117.804 89.471 115.924 90.4044 114.297C91.3644 112.644 92.671 111.351 94.3244 110.417C96.0044 109.484 97.911 109.017 100.044 109.017C102.124 109.017 103.978 109.471 105.604 110.377C107.231 111.284 108.511 112.564 109.444 114.217C110.378 115.871 110.844 117.817 110.844 120.057C110.844 120.271 110.831 120.511 110.804 120.777C110.804 121.044 110.791 121.297 110.764 121.537H92.9644V118.217H108.124L106.164 119.257C106.191 118.031 105.938 116.951 105.404 116.017C104.871 115.084 104.138 114.351 103.204 113.817C102.298 113.284 101.244 113.017 100.044 113.017C98.8177 113.017 97.7377 113.284 96.8044 113.817C95.8977 114.351 95.1777 115.097 94.6444 116.057C94.1377 116.991 93.8844 118.097 93.8844 119.377V120.177C93.8844 121.457 94.1777 122.591 94.7644 123.577C95.351 124.564 96.1777 125.324 97.2444 125.857C98.311 126.391 99.5377 126.657 100.924 126.657C102.124 126.657 103.204 126.471 104.164 126.097C105.124 125.724 105.978 125.137 106.724 124.337L109.404 127.417C108.444 128.537 107.231 129.404 105.764 130.017C104.324 130.604 102.671 130.897 100.804 130.897ZM125.687 130.897C123.314 130.897 121.234 130.431 119.447 129.497C117.687 128.537 116.314 127.231 115.327 125.577C114.367 123.924 113.887 122.044 113.887 119.937C113.887 117.804 114.354 115.924 115.287 114.297C116.247 112.644 117.554 111.351 119.207 110.417C120.887 109.484 122.794 109.017 124.927 109.017C127.007 109.017 128.861 109.471 130.487 110.377C132.114 111.284 133.394 112.564 134.327 114.217C135.261 115.871 135.727 117.817 135.727 120.057C135.727 120.271 135.714 120.511 135.687 120.777C135.687 121.044 135.674 121.297 135.647 121.537H117.847V118.217H133.007L131.047 119.257C131.074 118.031 130.821 116.951 130.287 116.017C129.754 115.084 129.021 114.351 128.087 113.817C127.181 113.284 126.127 113.017 124.927 113.017C123.701 113.017 122.621 113.284 121.687 113.817C120.781 114.351 120.061 115.097 119.527 116.057C119.021 116.991 118.767 118.097 118.767 119.377V120.177C118.767 121.457 119.061 122.591 119.647 123.577C120.234 124.564 121.061 125.324 122.127 125.857C123.194 126.391 124.421 126.657 125.807 126.657C127.007 126.657 128.087 126.471 129.047 126.097C130.007 125.724 130.861 125.137 131.607 124.337L134.287 127.417C133.327 128.537 132.114 129.404 130.647 130.017C129.207 130.604 127.554 130.897 125.687 130.897Z" fill="white"/>
<path d="M49.9 222.617V206.367L51.325 207.842H46.2V205.117H53.15V222.617H49.9ZM63.9215 222.867C62.5382 222.867 61.2882 222.517 60.1715 221.817C59.0715 221.117 58.2048 220.101 57.5715 218.767C56.9382 217.417 56.6215 215.784 56.6215 213.867C56.6215 211.951 56.9382 210.326 57.5715 208.992C58.2048 207.642 59.0715 206.617 60.1715 205.917C61.2882 205.217 62.5382 204.867 63.9215 204.867C65.3215 204.867 66.5715 205.217 67.6715 205.917C68.7715 206.617 69.6382 207.642 70.2715 208.992C70.9215 210.326 71.2465 211.951 71.2465 213.867C71.2465 215.784 70.9215 217.417 70.2715 218.767C69.6382 220.101 68.7715 221.117 67.6715 221.817C66.5715 222.517 65.3215 222.867 63.9215 222.867ZM63.9215 220.042C64.7382 220.042 65.4465 219.826 66.0465 219.392C66.6465 218.942 67.1132 218.259 67.4465 217.342C67.7965 216.426 67.9715 215.267 67.9715 213.867C67.9715 212.451 67.7965 211.292 67.4465 210.392C67.1132 209.476 66.6465 208.801 66.0465 208.367C65.4465 207.917 64.7382 207.692 63.9215 207.692C63.1382 207.692 62.4382 207.917 61.8215 208.367C61.2215 208.801 60.7465 209.476 60.3965 210.392C60.0632 211.292 59.8965 212.451 59.8965 213.867C59.8965 215.267 60.0632 216.426 60.3965 217.342C60.7465 218.259 61.2215 218.942 61.8215 219.392C62.4382 219.826 63.1382 220.042 63.9215 220.042ZM87.652 222.867C86.2686 222.867 85.0186 222.517 83.902 221.817C82.802 221.117 81.9353 220.101 81.302 218.767C80.6686 217.417 80.352 215.784 80.352 213.867C80.352 211.951 80.6686 210.326 81.302 208.992C81.9353 207.642 82.802 206.617 83.902 205.917C85.0186 205.217 86.2686 204.867 87.652 204.867C89.052 204.867 90.302 205.217 91.402 205.917C92.502 206.617 93.3686 207.642 94.002 208.992C94.652 210.326 94.977 211.951 94.977 213.867C94.977 215.784 94.652 217.417 94.002 218.767C93.3686 220.101 92.502 221.117 91.402 221.817C90.302 222.517 89.052 222.867 87.652 222.867ZM87.652 220.042C88.4686 220.042 89.177 219.826 89.777 219.392C90.377 218.942 90.8436 218.259 91.177 217.342C91.527 216.426 91.702 215.267 91.702 213.867C91.702 212.451 91.527 211.292 91.177 210.392C90.8436 209.476 90.377 208.801 89.777 208.367C89.177 207.917 88.4686 207.692 87.652 207.692C86.8686 207.692 86.1686 207.917 85.552 208.367C84.952 208.801 84.477 209.476 84.127 210.392C83.7936 211.292 83.627 212.451 83.627 213.867C83.627 215.267 83.7936 216.426 84.127 217.342C84.477 218.259 84.952 218.942 85.552 219.392C86.1686 219.826 86.8686 220.042 87.652 220.042ZM104.473 222.867C103.09 222.867 101.84 222.517 100.723 221.817C99.6232 221.117 98.7566 220.101 98.1232 218.767C97.4899 217.417 97.1732 215.784 97.1732 213.867C97.1732 211.951 97.4899 210.326 98.1232 208.992C98.7566 207.642 99.6232 206.617 100.723 205.917C101.84 205.217 103.09 204.867 104.473 204.867C105.873 204.867 107.123 205.217 108.223 205.917C109.323 206.617 110.19 207.642 110.823 208.992C111.473 210.326 111.798 211.951 111.798 213.867C111.798 215.784 111.473 217.417 110.823 218.767C110.19 220.101 109.323 221.117 108.223 221.817C107.123 222.517 105.873 222.867 104.473 222.867ZM104.473 220.042C105.29 220.042 105.998 219.826 106.598 219.392C107.198 218.942 107.665 218.259 107.998 217.342C108.348 216.426 108.523 215.267 108.523 213.867C108.523 212.451 108.348 211.292 107.998 210.392C107.665 209.476 107.198 208.801 106.598 208.367C105.998 207.917 105.29 207.692 104.473 207.692C103.69 207.692 102.99 207.917 102.373 208.367C101.773 208.801 101.298 209.476 100.948 210.392C100.615 211.292 100.448 212.451 100.448 213.867C100.448 215.267 100.615 216.426 100.948 217.342C101.298 218.259 101.773 218.942 102.373 219.392C102.99 219.826 103.69 220.042 104.473 220.042ZM121.295 222.867C119.911 222.867 118.661 222.517 117.545 221.817C116.445 221.117 115.578 220.101 114.945 218.767C114.311 217.417 113.995 215.784 113.995 213.867C113.995 211.951 114.311 210.326 114.945 208.992C115.578 207.642 116.445 206.617 117.545 205.917C118.661 205.217 119.911 204.867 121.295 204.867C122.695 204.867 123.945 205.217 125.045 205.917C126.145 206.617 127.011 207.642 127.645 208.992C128.295 210.326 128.62 211.951 128.62 213.867C128.62 215.784 128.295 217.417 127.645 218.767C127.011 220.101 126.145 221.117 125.045 221.817C123.945 222.517 122.695 222.867 121.295 222.867ZM121.295 220.042C122.111 220.042 122.82 219.826 123.42 219.392C124.02 218.942 124.486 218.259 124.82 217.342C125.17 216.426 125.345 215.267 125.345 213.867C125.345 212.451 125.17 211.292 124.82 210.392C124.486 209.476 124.02 208.801 123.42 208.367C122.82 207.917 122.111 207.692 121.295 207.692C120.511 207.692 119.811 207.917 119.195 208.367C118.595 208.801 118.12 209.476 117.77 210.392C117.436 211.292 117.27 212.451 117.27 213.867C117.27 215.267 117.436 216.426 117.77 217.342C118.12 218.259 118.595 218.942 119.195 219.392C119.811 219.826 120.511 220.042 121.295 220.042ZM142.214 222.617V212.809H138.374V211.417H147.638V212.809H143.798V222.617H142.214ZM148.953 222.617V214.137H150.425V216.441L150.281 215.865C150.516 215.279 150.91 214.831 151.465 214.521C152.02 214.212 152.702 214.057 153.513 214.057V215.545C153.449 215.535 153.385 215.529 153.321 215.529C153.268 215.529 153.214 215.529 153.161 215.529C152.34 215.529 151.689 215.775 151.209 216.265C150.729 216.756 150.489 217.465 150.489 218.393V222.617H148.953ZM160.045 222.617V220.825L159.965 220.489V217.433C159.965 216.783 159.773 216.281 159.389 215.929C159.016 215.567 158.451 215.385 157.693 215.385C157.192 215.385 156.701 215.471 156.221 215.641C155.741 215.801 155.336 216.02 155.005 216.297L154.365 215.145C154.803 214.793 155.325 214.527 155.933 214.345C156.552 214.153 157.197 214.057 157.869 214.057C159.032 214.057 159.928 214.34 160.557 214.905C161.187 215.471 161.501 216.335 161.501 217.497V222.617H160.045ZM157.261 222.713C156.632 222.713 156.077 222.607 155.597 222.393C155.128 222.18 154.765 221.887 154.509 221.513C154.253 221.129 154.125 220.697 154.125 220.217C154.125 219.759 154.232 219.343 154.445 218.969C154.669 218.596 155.027 218.297 155.517 218.073C156.019 217.849 156.691 217.737 157.533 217.737H160.221V218.841H157.597C156.829 218.841 156.312 218.969 156.045 219.225C155.779 219.481 155.645 219.791 155.645 220.153C155.645 220.569 155.811 220.905 156.141 221.161C156.472 221.407 156.931 221.529 157.517 221.529C158.093 221.529 158.595 221.401 159.021 221.145C159.459 220.889 159.773 220.516 159.965 220.025L160.269 221.081C160.067 221.583 159.709 221.983 159.197 222.281C158.685 222.569 158.04 222.713 157.261 222.713ZM168.872 214.057C169.565 214.057 170.173 214.191 170.696 214.457C171.229 214.724 171.645 215.129 171.944 215.673C172.242 216.217 172.392 216.905 172.392 217.737V222.617H170.856V217.913C170.856 217.092 170.653 216.473 170.248 216.057C169.853 215.641 169.293 215.433 168.568 215.433C168.024 215.433 167.549 215.54 167.144 215.753C166.738 215.967 166.424 216.281 166.2 216.697C165.986 217.113 165.88 217.631 165.88 218.249V222.617H164.344V214.137H165.816V216.425L165.576 215.817C165.853 215.263 166.28 214.831 166.856 214.521C167.432 214.212 168.104 214.057 168.872 214.057ZM177.666 222.713C176.962 222.713 176.29 222.617 175.65 222.425C175.021 222.233 174.525 221.999 174.162 221.721L174.802 220.505C175.165 220.751 175.613 220.959 176.146 221.129C176.68 221.3 177.224 221.385 177.778 221.385C178.493 221.385 179.005 221.284 179.314 221.081C179.634 220.879 179.794 220.596 179.794 220.233C179.794 219.967 179.698 219.759 179.506 219.609C179.314 219.46 179.058 219.348 178.738 219.273C178.429 219.199 178.082 219.135 177.698 219.081C177.314 219.017 176.93 218.943 176.546 218.857C176.162 218.761 175.81 218.633 175.49 218.473C175.17 218.303 174.914 218.073 174.722 217.785C174.53 217.487 174.434 217.092 174.434 216.601C174.434 216.089 174.578 215.641 174.866 215.257C175.154 214.873 175.56 214.58 176.082 214.377C176.616 214.164 177.245 214.057 177.97 214.057C178.525 214.057 179.085 214.127 179.65 214.265C180.226 214.393 180.696 214.58 181.058 214.825L180.402 216.041C180.018 215.785 179.618 215.609 179.202 215.513C178.786 215.417 178.37 215.369 177.954 215.369C177.282 215.369 176.781 215.481 176.45 215.705C176.12 215.919 175.954 216.196 175.954 216.537C175.954 216.825 176.05 217.049 176.242 217.209C176.445 217.359 176.701 217.476 177.01 217.561C177.33 217.647 177.682 217.721 178.066 217.785C178.45 217.839 178.834 217.913 179.218 218.009C179.602 218.095 179.949 218.217 180.258 218.377C180.578 218.537 180.834 218.761 181.026 219.049C181.229 219.337 181.33 219.721 181.33 220.201C181.33 220.713 181.181 221.156 180.882 221.529C180.584 221.903 180.162 222.196 179.618 222.409C179.074 222.612 178.424 222.713 177.666 222.713ZM183.25 222.617V210.745H184.786V222.617H183.25ZM192.983 222.617V220.825L192.903 220.489V217.433C192.903 216.783 192.711 216.281 192.327 215.929C191.953 215.567 191.388 215.385 190.631 215.385C190.129 215.385 189.639 215.471 189.159 215.641C188.679 215.801 188.273 216.02 187.943 216.297L187.303 215.145C187.74 214.793 188.263 214.527 188.871 214.345C189.489 214.153 190.135 214.057 190.807 214.057C191.969 214.057 192.865 214.34 193.495 214.905C194.124 215.471 194.439 216.335 194.439 217.497V222.617H192.983ZM190.199 222.713C189.569 222.713 189.015 222.607 188.535 222.393C188.065 222.18 187.703 221.887 187.447 221.513C187.191 221.129 187.063 220.697 187.063 220.217C187.063 219.759 187.169 219.343 187.383 218.969C187.607 218.596 187.964 218.297 188.455 218.073C188.956 217.849 189.628 217.737 190.471 217.737H193.159V218.841H190.535C189.767 218.841 189.249 218.969 188.983 219.225C188.716 219.481 188.583 219.791 188.583 220.153C188.583 220.569 188.748 220.905 189.079 221.161C189.409 221.407 189.868 221.529 190.455 221.529C191.031 221.529 191.532 221.401 191.959 221.145C192.396 220.889 192.711 220.516 192.903 220.025L193.207 221.081C193.004 221.583 192.647 221.983 192.135 222.281C191.623 222.569 190.977 222.713 190.199 222.713ZM200.193 222.713C199.34 222.713 198.679 222.484 198.209 222.025C197.74 221.567 197.505 220.911 197.505 220.057V212.281H199.041V219.993C199.041 220.452 199.153 220.804 199.377 221.049C199.612 221.295 199.943 221.417 200.369 221.417C200.849 221.417 201.249 221.284 201.569 221.017L202.049 222.121C201.815 222.324 201.532 222.473 201.201 222.569C200.881 222.665 200.545 222.713 200.193 222.713ZM196.065 215.401V214.137H201.473V215.401H196.065ZM203.906 222.617V214.137H205.442V222.617H203.906ZM204.674 212.505C204.376 212.505 204.125 212.409 203.922 212.217C203.73 212.025 203.634 211.791 203.634 211.513C203.634 211.225 203.73 210.985 203.922 210.793C204.125 210.601 204.376 210.505 204.674 210.505C204.973 210.505 205.218 210.601 205.41 210.793C205.613 210.975 205.714 211.204 205.714 211.481C205.714 211.769 205.618 212.015 205.426 212.217C205.234 212.409 204.984 212.505 204.674 212.505ZM212.007 222.713C211.154 222.713 210.396 222.527 209.735 222.153C209.074 221.78 208.551 221.268 208.167 220.617C207.783 219.956 207.591 219.209 207.591 218.377C207.591 217.535 207.783 216.788 208.167 216.137C208.551 215.487 209.074 214.98 209.735 214.617C210.396 214.244 211.154 214.057 212.007 214.057C212.85 214.057 213.602 214.244 214.263 214.617C214.935 214.98 215.458 215.487 215.831 216.137C216.215 216.777 216.407 217.524 216.407 218.377C216.407 219.22 216.215 219.967 215.831 220.617C215.458 221.268 214.935 221.78 214.263 222.153C213.602 222.527 212.85 222.713 212.007 222.713ZM212.007 221.369C212.551 221.369 213.036 221.247 213.463 221.001C213.9 220.756 214.242 220.409 214.487 219.961C214.732 219.503 214.855 218.975 214.855 218.377C214.855 217.769 214.732 217.247 214.487 216.809C214.242 216.361 213.9 216.015 213.463 215.769C213.036 215.524 212.551 215.401 212.007 215.401C211.463 215.401 210.978 215.524 210.551 215.769C210.124 216.015 209.783 216.361 209.527 216.809C209.271 217.247 209.143 217.769 209.143 218.377C209.143 218.975 209.271 219.503 209.527 219.961C209.783 220.409 210.124 220.756 210.551 221.001C210.978 221.247 211.463 221.369 212.007 221.369ZM223.059 214.057C223.753 214.057 224.361 214.191 224.883 214.457C225.417 214.724 225.833 215.129 226.131 215.673C226.43 216.217 226.579 216.905 226.579 217.737V222.617H225.043V217.913C225.043 217.092 224.841 216.473 224.435 216.057C224.041 215.641 223.481 215.433 222.755 215.433C222.211 215.433 221.737 215.54 221.331 215.753C220.926 215.967 220.611 216.281 220.387 216.697C220.174 217.113 220.067 217.631 220.067 218.249V222.617H218.531V214.137H220.003V216.425L219.763 215.817C220.041 215.263 220.467 214.831 221.043 214.521C221.619 214.212 222.291 214.057 223.059 214.057ZM231.854 222.713C231.15 222.713 230.478 222.617 229.838 222.425C229.208 222.233 228.712 221.999 228.35 221.721L228.99 220.505C229.352 220.751 229.8 220.959 230.334 221.129C230.867 221.3 231.411 221.385 231.966 221.385C232.68 221.385 233.192 221.284 233.502 221.081C233.822 220.879 233.982 220.596 233.982 220.233C233.982 219.967 233.886 219.759 233.694 219.609C233.502 219.46 233.246 219.348 232.926 219.273C232.616 219.199 232.27 219.135 231.886 219.081C231.502 219.017 231.118 218.943 230.734 218.857C230.35 218.761 229.998 218.633 229.678 218.473C229.358 218.303 229.102 218.073 228.91 217.785C228.718 217.487 228.622 217.092 228.622 216.601C228.622 216.089 228.766 215.641 229.054 215.257C229.342 214.873 229.747 214.58 230.27 214.377C230.803 214.164 231.432 214.057 232.158 214.057C232.712 214.057 233.272 214.127 233.838 214.265C234.414 214.393 234.883 214.58 235.246 214.825L234.59 216.041C234.206 215.785 233.806 215.609 233.39 215.513C232.974 215.417 232.558 215.369 232.142 215.369C231.47 215.369 230.968 215.481 230.638 215.705C230.307 215.919 230.142 216.196 230.142 216.537C230.142 216.825 230.238 217.049 230.43 217.209C230.632 217.359 230.888 217.476 231.198 217.561C231.518 217.647 231.87 217.721 232.254 217.785C232.638 217.839 233.022 217.913 233.406 218.009C233.79 218.095 234.136 218.217 234.446 218.377C234.766 218.537 235.022 218.761 235.214 219.049C235.416 219.337 235.518 219.721 235.518 220.201C235.518 220.713 235.368 221.156 235.07 221.529C234.771 221.903 234.35 222.196 233.806 222.409C233.262 222.612 232.611 222.713 231.854 222.713Z" fill="white"/>
<path d="M47.68 268.617V257.417H48.992L54.016 265.881H53.312L58.272 257.417H59.584L59.6 268.617H58.064L58.048 259.833H58.416L54 267.257H53.264L48.816 259.833H49.216V268.617H47.68ZM66.3693 268.713C65.5159 268.713 64.7586 268.527 64.0973 268.153C63.4359 267.78 62.9133 267.268 62.5293 266.617C62.1453 265.956 61.9533 265.209 61.9533 264.377C61.9533 263.535 62.1453 262.788 62.5293 262.137C62.9133 261.487 63.4359 260.98 64.0973 260.617C64.7586 260.244 65.5159 260.057 66.3693 260.057C67.2119 260.057 67.9639 260.244 68.6253 260.617C69.2973 260.98 69.8199 261.487 70.1933 262.137C70.5773 262.777 70.7693 263.524 70.7693 264.377C70.7693 265.22 70.5773 265.967 70.1933 266.617C69.8199 267.268 69.2973 267.78 68.6253 268.153C67.9639 268.527 67.2119 268.713 66.3693 268.713ZM66.3693 267.369C66.9133 267.369 67.3986 267.247 67.8253 267.001C68.2626 266.756 68.6039 266.409 68.8493 265.961C69.0946 265.503 69.2173 264.975 69.2173 264.377C69.2173 263.769 69.0946 263.247 68.8493 262.809C68.6039 262.361 68.2626 262.015 67.8253 261.769C67.3986 261.524 66.9133 261.401 66.3693 261.401C65.8253 261.401 65.3399 261.524 64.9133 261.769C64.4866 262.015 64.1453 262.361 63.8893 262.809C63.6333 263.247 63.5053 263.769 63.5053 264.377C63.5053 264.975 63.6333 265.503 63.8893 265.961C64.1453 266.409 64.4866 266.756 64.9133 267.001C65.3399 267.247 65.8253 267.369 66.3693 267.369ZM72.8935 268.617V260.137H74.3655V262.441L74.2215 261.865C74.4562 261.279 74.8508 260.831 75.4055 260.521C75.9602 260.212 76.6428 260.057 77.4535 260.057V261.545C77.3895 261.535 77.3255 261.529 77.2615 261.529C77.2082 261.529 77.1548 261.529 77.1015 261.529C76.2802 261.529 75.6295 261.775 75.1495 262.265C74.6695 262.756 74.4295 263.465 74.4295 264.393V268.617H72.8935ZM83.0445 268.713C82.1378 268.713 81.3378 268.527 80.6445 268.153C79.9618 267.78 79.4285 267.268 79.0445 266.617C78.6712 265.967 78.4845 265.22 78.4845 264.377C78.4845 263.535 78.6658 262.788 79.0285 262.137C79.4018 261.487 79.9085 260.98 80.5485 260.617C81.1992 260.244 81.9298 260.057 82.7405 260.057C83.5618 260.057 84.2872 260.239 84.9165 260.601C85.5458 260.964 86.0365 261.476 86.3885 262.137C86.7512 262.788 86.9325 263.551 86.9325 264.425C86.9325 264.489 86.9272 264.564 86.9165 264.649C86.9165 264.735 86.9112 264.815 86.9005 264.889H79.6845V263.785H86.1005L85.4765 264.169C85.4872 263.625 85.3752 263.14 85.1405 262.713C84.9058 262.287 84.5805 261.956 84.1645 261.721C83.7592 261.476 83.2845 261.353 82.7405 261.353C82.2072 261.353 81.7325 261.476 81.3165 261.721C80.9005 261.956 80.5752 262.292 80.3405 262.729C80.1058 263.156 79.9885 263.647 79.9885 264.201V264.457C79.9885 265.023 80.1165 265.529 80.3725 265.977C80.6392 266.415 81.0072 266.756 81.4765 267.001C81.9458 267.247 82.4845 267.369 83.0925 267.369C83.5938 267.369 84.0472 267.284 84.4525 267.113C84.8685 266.943 85.2312 266.687 85.5405 266.345L86.3885 267.337C86.0045 267.785 85.5245 268.127 84.9485 268.361C84.3832 268.596 83.7485 268.713 83.0445 268.713ZM96.2743 268.713C95.4209 268.713 94.7596 268.484 94.2903 268.025C93.8209 267.567 93.5863 266.911 93.5863 266.057V258.281H95.1223V265.993C95.1223 266.452 95.2343 266.804 95.4583 267.049C95.6929 267.295 96.0236 267.417 96.4503 267.417C96.9303 267.417 97.3303 267.284 97.6503 267.017L98.1303 268.121C97.8956 268.324 97.6129 268.473 97.2823 268.569C96.9623 268.665 96.6263 268.713 96.2743 268.713ZM92.1463 261.401V260.137H97.5543V261.401H92.1463ZM104.515 260.057C105.209 260.057 105.817 260.191 106.339 260.457C106.873 260.724 107.289 261.129 107.587 261.673C107.886 262.217 108.035 262.905 108.035 263.737V268.617H106.499V263.913C106.499 263.092 106.297 262.473 105.891 262.057C105.497 261.641 104.937 261.433 104.211 261.433C103.667 261.433 103.193 261.54 102.787 261.753C102.382 261.967 102.067 262.281 101.843 262.697C101.63 263.113 101.523 263.631 101.523 264.249V268.617H99.9873V256.745H101.523V262.425L101.219 261.817C101.497 261.263 101.923 260.831 102.499 260.521C103.075 260.212 103.747 260.057 104.515 260.057ZM116.142 268.617V266.825L116.062 266.489V263.433C116.062 262.783 115.87 262.281 115.486 261.929C115.113 261.567 114.547 261.385 113.79 261.385C113.289 261.385 112.798 261.471 112.318 261.641C111.838 261.801 111.433 262.02 111.102 262.297L110.462 261.145C110.899 260.793 111.422 260.527 112.03 260.345C112.649 260.153 113.294 260.057 113.966 260.057C115.129 260.057 116.025 260.34 116.654 260.905C117.283 261.471 117.598 262.335 117.598 263.497V268.617H116.142ZM113.358 268.713C112.729 268.713 112.174 268.607 111.694 268.393C111.225 268.18 110.862 267.887 110.606 267.513C110.35 267.129 110.222 266.697 110.222 266.217C110.222 265.759 110.329 265.343 110.542 264.969C110.766 264.596 111.123 264.297 111.614 264.073C112.115 263.849 112.787 263.737 113.63 263.737H116.318V264.841H113.694C112.926 264.841 112.409 264.969 112.142 265.225C111.875 265.481 111.742 265.791 111.742 266.153C111.742 266.569 111.907 266.905 112.238 267.161C112.569 267.407 113.027 267.529 113.614 267.529C114.19 267.529 114.691 267.401 115.118 267.145C115.555 266.889 115.87 266.516 116.062 266.025L116.366 267.081C116.163 267.583 115.806 267.983 115.294 268.281C114.782 268.569 114.137 268.713 113.358 268.713ZM124.968 260.057C125.662 260.057 126.27 260.191 126.792 260.457C127.326 260.724 127.742 261.129 128.04 261.673C128.339 262.217 128.488 262.905 128.488 263.737V268.617H126.952V263.913C126.952 263.092 126.75 262.473 126.344 262.057C125.95 261.641 125.39 261.433 124.664 261.433C124.12 261.433 123.646 261.54 123.24 261.753C122.835 261.967 122.52 262.281 122.296 262.697C122.083 263.113 121.976 263.631 121.976 264.249V268.617H120.44V260.137H121.912V262.425L121.672 261.817C121.95 261.263 122.376 260.831 122.952 260.521C123.528 260.212 124.2 260.057 124.968 260.057ZM142.369 268.617V252.367L143.794 253.842H138.669V251.117H145.619V268.617H142.369ZM154.89 268.867C153.657 268.867 152.449 268.692 151.265 268.342C150.099 267.976 149.115 267.476 148.315 266.842L149.69 264.317C150.324 264.834 151.09 265.251 151.99 265.567C152.907 265.884 153.857 266.042 154.84 266.042C155.99 266.042 156.89 265.801 157.54 265.317C158.207 264.834 158.54 264.184 158.54 263.367C158.54 262.817 158.399 262.334 158.115 261.917C157.849 261.501 157.365 261.184 156.665 260.967C155.982 260.751 155.04 260.642 153.84 260.642H149.615L150.515 251.117H160.79V253.842H151.715L153.415 252.292L152.74 259.417L151.04 257.892H154.565C156.299 257.892 157.69 258.126 158.74 258.592C159.807 259.042 160.582 259.676 161.065 260.492C161.565 261.292 161.815 262.209 161.815 263.242C161.815 264.259 161.565 265.192 161.065 266.042C160.565 266.892 159.799 267.576 158.765 268.092C157.749 268.609 156.457 268.867 154.89 268.867ZM170.99 268.867C169.607 268.867 168.357 268.517 167.24 267.817C166.14 267.117 165.273 266.101 164.64 264.767C164.007 263.417 163.69 261.784 163.69 259.867C163.69 257.951 164.007 256.326 164.64 254.992C165.273 253.642 166.14 252.617 167.24 251.917C168.357 251.217 169.607 250.867 170.99 250.867C172.39 250.867 173.64 251.217 174.74 251.917C175.84 252.617 176.707 253.642 177.34 254.992C177.99 256.326 178.315 257.951 178.315 259.867C178.315 261.784 177.99 263.417 177.34 264.767C176.707 266.101 175.84 267.117 174.74 267.817C173.64 268.517 172.39 268.867 170.99 268.867ZM170.99 266.042C171.807 266.042 172.515 265.826 173.115 265.392C173.715 264.942 174.182 264.259 174.515 263.342C174.865 262.426 175.04 261.267 175.04 259.867C175.04 258.451 174.865 257.292 174.515 256.392C174.182 255.476 173.715 254.801 173.115 254.367C172.515 253.917 171.807 253.692 170.99 253.692C170.207 253.692 169.507 253.917 168.89 254.367C168.29 254.801 167.815 255.476 167.465 256.392C167.132 257.292 166.965 258.451 166.965 259.867C166.965 261.267 167.132 262.426 167.465 263.342C167.815 264.259 168.29 264.942 168.89 265.392C169.507 265.826 170.207 266.042 170.99 266.042ZM189.685 268.617V257.417H191.285V267.225H197.349V268.617H189.685ZM204.225 268.617V266.825L204.145 266.489V263.433C204.145 262.783 203.953 262.281 203.569 261.929C203.196 261.567 202.63 261.385 201.873 261.385C201.372 261.385 200.881 261.471 200.401 261.641C199.921 261.801 199.516 262.02 199.185 262.297L198.545 261.145C198.982 260.793 199.505 260.527 200.113 260.345C200.732 260.153 201.377 260.057 202.049 260.057C203.212 260.057 204.108 260.34 204.737 260.905C205.366 261.471 205.681 262.335 205.681 263.497V268.617H204.225ZM201.441 268.713C200.812 268.713 200.257 268.607 199.777 268.393C199.308 268.18 198.945 267.887 198.689 267.513C198.433 267.129 198.305 266.697 198.305 266.217C198.305 265.759 198.412 265.343 198.625 264.969C198.849 264.596 199.206 264.297 199.697 264.073C200.198 263.849 200.87 263.737 201.713 263.737H204.401V264.841H201.777C201.009 264.841 200.492 264.969 200.225 265.225C199.958 265.481 199.825 265.791 199.825 266.153C199.825 266.569 199.99 266.905 200.321 267.161C200.652 267.407 201.11 267.529 201.697 267.529C202.273 267.529 202.774 267.401 203.201 267.145C203.638 266.889 203.953 266.516 204.145 266.025L204.449 267.081C204.246 267.583 203.889 267.983 203.377 268.281C202.865 268.569 202.22 268.713 201.441 268.713ZM213.051 260.057C213.745 260.057 214.353 260.191 214.875 260.457C215.409 260.724 215.825 261.129 216.123 261.673C216.422 262.217 216.571 262.905 216.571 263.737V268.617H215.035V263.913C215.035 263.092 214.833 262.473 214.427 262.057C214.033 261.641 213.473 261.433 212.747 261.433C212.203 261.433 211.729 261.54 211.323 261.753C210.918 261.967 210.603 262.281 210.379 262.697C210.166 263.113 210.059 263.631 210.059 264.249V268.617H208.523V260.137H209.995V262.425L209.755 261.817C210.033 261.263 210.459 260.831 211.035 260.521C211.611 260.212 212.283 260.057 213.051 260.057ZM223.126 271.817C222.347 271.817 221.59 271.705 220.854 271.481C220.129 271.268 219.537 270.959 219.078 270.553L219.814 269.369C220.209 269.711 220.694 269.977 221.27 270.169C221.846 270.372 222.449 270.473 223.078 270.473C224.081 270.473 224.817 270.239 225.286 269.769C225.755 269.3 225.99 268.585 225.99 267.625V265.833L226.15 264.153L226.07 262.457V260.137H227.526V267.465C227.526 268.959 227.153 270.057 226.406 270.761C225.659 271.465 224.566 271.817 223.126 271.817ZM222.934 268.265C222.113 268.265 221.377 268.095 220.726 267.753C220.086 267.401 219.574 266.916 219.19 266.297C218.817 265.679 218.63 264.964 218.63 264.153C218.63 263.332 218.817 262.617 219.19 262.009C219.574 261.391 220.086 260.911 220.726 260.569C221.377 260.228 222.113 260.057 222.934 260.057C223.659 260.057 224.321 260.207 224.918 260.505C225.515 260.793 225.99 261.241 226.342 261.849C226.705 262.457 226.886 263.225 226.886 264.153C226.886 265.071 226.705 265.833 226.342 266.441C225.99 267.049 225.515 267.508 224.918 267.817C224.321 268.116 223.659 268.265 222.934 268.265ZM223.11 266.921C223.675 266.921 224.177 266.804 224.614 266.569C225.051 266.335 225.393 266.009 225.638 265.593C225.894 265.177 226.022 264.697 226.022 264.153C226.022 263.609 225.894 263.129 225.638 262.713C225.393 262.297 225.051 261.977 224.614 261.753C224.177 261.519 223.675 261.401 223.11 261.401C222.545 261.401 222.038 261.519 221.59 261.753C221.153 261.977 220.806 262.297 220.55 262.713C220.305 263.129 220.182 263.609 220.182 264.153C220.182 264.697 220.305 265.177 220.55 265.593C220.806 266.009 221.153 266.335 221.59 266.569C222.038 266.804 222.545 266.921 223.11 266.921ZM234.029 268.713C233.304 268.713 232.664 268.58 232.109 268.313C231.565 268.047 231.138 267.641 230.829 267.097C230.53 266.543 230.381 265.849 230.381 265.017V260.137H231.917V264.841C231.917 265.673 232.114 266.297 232.509 266.713C232.914 267.129 233.48 267.337 234.205 267.337C234.738 267.337 235.202 267.231 235.597 267.017C235.992 266.793 236.296 266.473 236.509 266.057C236.722 265.631 236.829 265.119 236.829 264.521V260.137H238.365V268.617H236.909V266.329L237.149 266.937C236.872 267.503 236.456 267.94 235.901 268.249C235.346 268.559 234.722 268.713 234.029 268.713ZM246.553 268.617V266.825L246.473 266.489V263.433C246.473 262.783 246.281 262.281 245.897 261.929C245.524 261.567 244.958 261.385 244.201 261.385C243.7 261.385 243.209 261.471 242.729 261.641C242.249 261.801 241.844 262.02 241.513 262.297L240.873 261.145C241.31 260.793 241.833 260.527 242.441 260.345C243.06 260.153 243.705 260.057 244.377 260.057C245.54 260.057 246.436 260.34 247.065 260.905C247.694 261.471 248.009 262.335 248.009 263.497V268.617H246.553ZM243.769 268.713C243.14 268.713 242.585 268.607 242.105 268.393C241.636 268.18 241.273 267.887 241.017 267.513C240.761 267.129 240.633 266.697 240.633 266.217C240.633 265.759 240.74 265.343 240.953 264.969C241.177 264.596 241.534 264.297 242.025 264.073C242.526 263.849 243.198 263.737 244.041 263.737H246.729V264.841H244.105C243.337 264.841 242.82 264.969 242.553 265.225C242.286 265.481 242.153 265.791 242.153 266.153C242.153 266.569 242.318 266.905 242.649 267.161C242.98 267.407 243.438 267.529 244.025 267.529C244.601 267.529 245.102 267.401 245.529 267.145C245.966 266.889 246.281 266.516 246.473 266.025L246.777 267.081C246.574 267.583 246.217 267.983 245.705 268.281C245.193 268.569 244.548 268.713 243.769 268.713ZM254.564 271.817C253.785 271.817 253.028 271.705 252.292 271.481C251.566 271.268 250.974 270.959 250.516 270.553L251.252 269.369C251.646 269.711 252.132 269.977 252.708 270.169C253.284 270.372 253.886 270.473 254.516 270.473C255.518 270.473 256.254 270.239 256.724 269.769C257.193 269.3 257.428 268.585 257.428 267.625V265.833L257.588 264.153L257.508 262.457V260.137H258.964V267.465C258.964 268.959 258.59 270.057 257.844 270.761C257.097 271.465 256.004 271.817 254.564 271.817ZM254.372 268.265C253.55 268.265 252.814 268.095 252.164 267.753C251.524 267.401 251.012 266.916 250.628 266.297C250.254 265.679 250.068 264.964 250.068 264.153C250.068 263.332 250.254 262.617 250.628 262.009C251.012 261.391 251.524 260.911 252.164 260.569C252.814 260.228 253.55 260.057 254.372 260.057C255.097 260.057 255.758 260.207 256.356 260.505C256.953 260.793 257.428 261.241 257.78 261.849C258.142 262.457 258.324 263.225 258.324 264.153C258.324 265.071 258.142 265.833 257.78 266.441C257.428 267.049 256.953 267.508 256.356 267.817C255.758 268.116 255.097 268.265 254.372 268.265ZM254.548 266.921C255.113 266.921 255.614 266.804 256.052 266.569C256.489 266.335 256.83 266.009 257.076 265.593C257.332 265.177 257.46 264.697 257.46 264.153C257.46 263.609 257.332 263.129 257.076 262.713C256.83 262.297 256.489 261.977 256.052 261.753C255.614 261.519 255.113 261.401 254.548 261.401C253.982 261.401 253.476 261.519 253.028 261.753C252.59 261.977 252.244 262.297 251.988 262.713C251.742 263.129 251.62 263.609 251.62 264.153C251.62 264.697 251.742 265.177 251.988 265.593C252.244 266.009 252.59 266.335 253.028 266.569C253.476 266.804 253.982 266.921 254.548 266.921ZM265.674 268.713C264.768 268.713 263.968 268.527 263.274 268.153C262.592 267.78 262.058 267.268 261.674 266.617C261.301 265.967 261.114 265.22 261.114 264.377C261.114 263.535 261.296 262.788 261.658 262.137C262.032 261.487 262.538 260.98 263.178 260.617C263.829 260.244 264.56 260.057 265.37 260.057C266.192 260.057 266.917 260.239 267.546 260.601C268.176 260.964 268.666 261.476 269.018 262.137C269.381 262.788 269.562 263.551 269.562 264.425C269.562 264.489 269.557 264.564 269.546 264.649C269.546 264.735 269.541 264.815 269.53 264.889H262.314V263.785H268.73L268.106 264.169C268.117 263.625 268.005 263.14 267.77 262.713C267.536 262.287 267.21 261.956 266.794 261.721C266.389 261.476 265.914 261.353 265.37 261.353C264.837 261.353 264.362 261.476 263.946 261.721C263.53 261.956 263.205 262.292 262.97 262.729C262.736 263.156 262.618 263.647 262.618 264.201V264.457C262.618 265.023 262.746 265.529 263.002 265.977C263.269 266.415 263.637 266.756 264.106 267.001C264.576 267.247 265.114 267.369 265.722 267.369C266.224 267.369 266.677 267.284 267.082 267.113C267.498 266.943 267.861 266.687 268.17 266.345L269.018 267.337C268.634 267.785 268.154 268.127 267.578 268.361C267.013 268.596 266.378 268.713 265.674 268.713ZM274.127 268.713C273.423 268.713 272.751 268.617 272.111 268.425C271.482 268.233 270.986 267.999 270.623 267.721L271.263 266.505C271.626 266.751 272.074 266.959 272.607 267.129C273.141 267.3 273.685 267.385 274.239 267.385C274.954 267.385 275.466 267.284 275.775 267.081C276.095 266.879 276.255 266.596 276.255 266.233C276.255 265.967 276.159 265.759 275.967 265.609C275.775 265.46 275.519 265.348 275.199 265.273C274.89 265.199 274.543 265.135 274.159 265.081C273.775 265.017 273.391 264.943 273.007 264.857C272.623 264.761 272.271 264.633 271.951 264.473C271.631 264.303 271.375 264.073 271.183 263.785C270.991 263.487 270.895 263.092 270.895 262.601C270.895 262.089 271.039 261.641 271.327 261.257C271.615 260.873 272.021 260.58 272.543 260.377C273.077 260.164 273.706 260.057 274.431 260.057C274.986 260.057 275.546 260.127 276.111 260.265C276.687 260.393 277.157 260.58 277.519 260.825L276.863 262.041C276.479 261.785 276.079 261.609 275.663 261.513C275.247 261.417 274.831 261.369 274.415 261.369C273.743 261.369 273.242 261.481 272.911 261.705C272.581 261.919 272.415 262.196 272.415 262.537C272.415 262.825 272.511 263.049 272.703 263.209C272.906 263.359 273.162 263.476 273.471 263.561C273.791 263.647 274.143 263.721 274.527 263.785C274.911 263.839 275.295 263.913 275.679 264.009C276.063 264.095 276.41 264.217 276.719 264.377C277.039 264.537 277.295 264.761 277.487 265.049C277.69 265.337 277.791 265.721 277.791 266.201C277.791 266.713 277.642 267.156 277.343 267.529C277.045 267.903 276.623 268.196 276.079 268.409C275.535 268.612 274.885 268.713 274.127 268.713Z" fill="white"/>
<defs>
<filter id="filter0_d_538_2702" x="0" y="0.617188" width="520" height="320" filterUnits="userSpaceOnUse" color-interpolation-filters="sRGB">
<feFlood flood-opacity="0" result="BackgroundImageFix"/>
<feColorMatrix in="SourceAlpha" type="matrix" values="0 0 0 0 0 0 0 0 0 0 0 0 0 0 0 0 0 0 127 0" result="hardAlpha"/>
<feOffset/>
<feGaussianBlur stdDeviation="5"/>
<feComposite in2="hardAlpha" operator="out"/>
<feColorMatrix type="matrix" values="0 0 0 0 0 0 0 0 0 0 0 0 0 0 0 0 0 0 0.03 0"/>
<feBlend mode="normal" in2="BackgroundImageFix" result="effect1_dropShadow_538_2702"/>
<feBlend mode="normal" in="SourceGraphic" in2="effect1_dropShadow_538_2702" result="shape"/>
</filter>
<linearGradient id="paint0_linear_538_2702" x1="492.5" y1="10.6172" x2="256.295" y2="436.211" gradientUnits="userSpaceOnUse">
<stop stop-color="#3A1DE9"/>
<stop offset="0.990989" stop-color="#3D3CBD"/>
</linearGradient>
</defs>
</svg>
