<svg width="20" height="21" viewBox="0 0 20 21" fill="none" xmlns="http://www.w3.org/2000/svg">
    <g clip-path="url(#clip0_238_1303)">
        <path fill-rule="evenodd" clip-rule="evenodd"
            d="M15 1.7H4C3.00589 1.7 2.2 2.50589 2.2 3.5V14.5C2.2 15.4941 3.00589 16.3 4 16.3H15C15.9941 16.3 16.8 15.4941 16.8 14.5V3.5C16.8 2.50589 15.9941 1.7 15 1.7ZM4 0.5C2.34315 0.5 1 1.84315 1 3.5V14.5C1 16.1569 2.34315 17.5 4 17.5H15C16.6569 17.5 18 16.1569 18 14.5V3.5C18 1.84315 16.6569 0.5 15 0.5H4Z"
            fill="white" />
        <path fill-rule="evenodd" clip-rule="evenodd"
            d="M13 4.7H6C5.55817 4.7 5.2 5.05817 5.2 5.5V12.5C5.2 12.9418 5.55817 13.3 6 13.3H13C13.4418 13.3 13.8 12.9418 13.8 12.5V5.5C13.8 5.05817 13.4418 4.7 13 4.7ZM6 3.5C4.89543 3.5 4 4.39543 4 5.5V12.5C4 13.6046 4.89543 14.5 6 14.5H13C14.1046 14.5 15 13.6046 15 12.5V5.5C15 4.39543 14.1046 3.5 13 3.5H6Z"
            fill="white" />
    </g>
    <defs>
        <clipPath id="clip0_238_1303">
            <rect width="20" height="20" fill="white" transform="translate(0 0.5)" />
        </clipPath>
    </defs>
</svg>