<svg width="20" height="21" viewBox="0 0 20 21" fill="none" xmlns="http://www.w3.org/2000/svg">
    <path fill-rule="evenodd" clip-rule="evenodd"
        d="M2.2 3.7V5.3H16.8V3.7H2.2ZM2 2.5C1.44772 2.5 1 2.94772 1 3.5V5.5C1 6.05228 1.44772 6.5 2 6.5H17C17.5523 6.5 18 6.05228 18 5.5V3.5C18 2.94772 17.5523 2.5 17 2.5H2ZM2.2 8.7V10.3H9.8V8.7H2.2ZM2 7.5C1.44772 7.5 1 7.94772 1 8.5V10.5C1 11.0523 1.44772 11.5 2 11.5H10C10.5523 11.5 11 11.0523 11 10.5V8.5C11 7.94772 10.5523 7.5 10 7.5H2ZM2.2 15.3V13.7H13.8V15.3H2.2ZM1 13.5C1 12.9477 1.44772 12.5 2 12.5H14C14.5523 12.5 15 12.9477 15 13.5V15.5C15 16.0523 14.5523 16.5 14 16.5H2C1.44772 16.5 1 16.0523 1 15.5V13.5Z"
        fill="white" />
</svg>